<svg width="173" height="33" viewBox="0 0 173 33" fill="none" xmlns="http://www.w3.org/2000/svg">
<path d="M70.5553 28.6536C69.4392 28.6536 68.4028 28.2512 66.6488 27.1244V28.6536H62.1843V3.21948H66.6488V13.5219C68.0041 12.3146 69.1203 11.9122 70.5553 11.8317C73.1065 11.7512 75.1793 12.717 76.6143 14.4073C78.129 16.0975 78.8465 18.0292 78.8465 20.2829C78.8465 22.5366 78.129 24.4683 76.6143 26.1585C75.1793 27.8488 73.1065 28.6536 70.5553 28.6536ZM66.6488 18.9951V21.8122C66.888 23.6634 68.1636 24.7097 70.3959 25.0317C73.4253 24.9512 75.0198 23.1805 75.1793 19.8805C74.8604 17.1439 73.1862 15.6951 70.3959 15.4536C68.1636 15.7756 66.888 16.9829 66.6488 18.9951Z" fill="white"/>
<path d="M81.6368 7.48535C81.6368 6.19754 82.5137 5.23169 84.0285 5.23169C85.5432 5.23169 86.4202 6.19754 86.4202 7.48535C86.4202 8.77315 85.5432 9.73901 84.0285 9.73901C82.5137 9.65852 81.6368 8.77315 81.6368 7.48535ZM81.7962 11.7512H86.1013V28.6536H81.7962V11.7512Z" fill="white"/>
<path d="M93.2767 27.044C92.1605 25.9977 91.6025 24.6294 91.6025 22.9391V15.2928H89.0513V11.7513H91.6025V7.08302L96.067 6.6001V11.7513H98.6181V15.2928H96.067V22.2952C96.067 24.2269 96.9439 24.9513 98.2992 24.9513C98.4587 24.9513 98.7776 24.8708 99.4951 24.7099L100.452 27.9294C99.4951 28.4928 98.6979 28.6538 97.8209 28.6538C95.9075 28.6538 94.3928 28.0903 93.2767 27.044Z" fill="white"/>
<path d="M103.082 7.48535C103.082 6.19754 103.959 5.23169 105.474 5.23169C106.989 5.23169 107.866 6.19754 107.866 7.48535C107.866 8.77315 106.989 9.73901 105.474 9.73901C104.039 9.65852 103.082 8.77315 103.082 7.48535ZM103.242 11.7512H107.547V28.6536H103.242V11.7512Z" fill="white"/>
<path d="M119.027 28.8146C116.636 28.8146 114.563 28.0097 112.968 26.3194C111.374 24.6292 110.497 22.617 110.497 20.1219C110.497 17.6268 111.294 15.6146 112.968 13.9243C114.642 12.2341 116.636 11.4292 119.027 11.4292C121.419 11.4292 123.492 12.2341 125.086 13.9243C126.681 15.6146 127.558 17.6268 127.558 20.1219C127.558 22.617 126.76 24.6292 125.086 26.3194C123.412 28.0097 121.419 28.8146 119.027 28.8146ZM119.027 15.3731C117.672 15.3731 116.556 15.856 115.759 16.7414C114.882 17.6268 114.483 18.8341 114.483 20.2024C114.483 21.5707 114.882 22.6975 115.759 23.6633C116.556 24.6292 117.672 25.0316 119.027 25.0316C120.383 25.0316 121.499 24.5487 122.296 23.6633C123.173 22.6975 123.571 21.5707 123.571 20.2024C123.571 18.8341 123.173 17.7072 122.296 16.7414C121.499 15.856 120.383 15.3731 119.027 15.3731Z" fill="white"/>
<path d="M140.951 19.3171C140.951 16.9024 139.755 15.5341 137.363 15.4537C136.327 15.5341 135.45 16.339 134.653 17.7878V28.6537H130.188L130.268 11.7512H134.653V13.6024C136.327 12.2341 137.523 11.8317 138.878 11.8317C141.031 11.8317 142.625 12.4756 143.741 13.7634C144.857 15.0512 145.416 16.5805 145.416 18.2707V28.8146H140.951V19.3171Z" fill="white"/>
<path d="M148.126 27.6878L155.381 15.4537H148.126V11.7512H161.44V12.7976L154.185 24.9512H161.44V28.6537H148.126V27.6878Z" fill="white"/>
<path d="M52.6175 27.6426L50.4187 29.7805L47.1205 26.347L46.9912 26.2174C43.9516 28.42 40.5887 28.5496 40.2007 28.5496C39.554 28.5496 35.7384 28.5496 32.3756 25.3752C31.9875 25.0513 31.6642 24.7274 31.4055 24.4035C30.6294 23.5613 30.1767 22.8487 29.4654 21.6826C28.8187 20.1926 28.1719 19.0913 27.4606 17.2126C26.8139 15.3987 26.2965 13.7143 24.9384 11.9652C24.9384 11.9652 24.9384 11.9652 24.9384 11.9004C24.421 11.3173 22.9983 9.9569 20.7995 9.5682C20.1528 9.43864 18.0186 9.17951 15.9492 10.5399C15.6258 10.7343 13.1683 12.3539 12.7156 15.4634C12.651 15.8521 12.3923 18.1195 13.7504 20.3222C15.3671 22.8487 18.2773 23.8204 20.7348 23.4965C21.7695 23.367 24.033 22.3952 26.3612 19.9335C26.5552 20.3869 26.7492 20.7756 26.9432 21.2291C27.0725 21.553 27.2019 21.8122 27.3959 22.1361C27.5899 22.5248 27.7839 22.9135 27.9779 23.3022C28.2366 23.8204 28.4306 24.2739 28.6893 24.7922C28.3013 25.1809 27.7193 25.6344 27.0079 26.1526C26.4258 26.5413 25.7791 26.93 25.0677 27.3187C24.6151 27.5131 22.7396 28.4848 20.0881 28.4848C19.118 28.4848 15.8845 28.4848 12.7803 26.2174C8.124 22.7839 7.92998 17.2126 7.92998 16.7591C7.6713 13.196 9.2234 10.5399 10.1935 9.24429L6.37788 5.35732L8.51202 3.21948L12.2629 7.10645C14.9791 4.96862 18.342 4.32079 21.0582 4.64471C23.3863 4.96862 25.1971 6.00515 25.4558 6.19949C26.7492 6.97689 27.6546 7.88385 28.2366 8.53168C28.366 8.66124 28.4306 8.79081 28.56 8.92037C28.6246 8.98516 28.6893 9.04994 28.6893 9.11472C28.6893 9.17951 28.754 9.17951 28.754 9.24429C29.2714 9.9569 30.0474 11.4469 30.9528 13.4552C32.1169 15.9817 33.6043 19.5448 34.057 20.3222C34.1217 20.3869 34.1217 20.4517 34.1863 20.5165C34.3157 20.6461 34.445 20.9052 34.639 21.0996C35.0271 21.553 36.5145 23.1726 38.9073 23.5613C39.554 23.6909 41.6881 23.95 43.7576 22.5896C44.081 22.3952 46.5385 20.7756 46.9912 17.6661C47.0558 17.2774 47.3145 15.01 45.9564 12.8073C44.3397 10.2808 41.4295 9.30907 38.972 9.63299C37.9372 9.76255 35.6738 10.5399 33.3456 13.0017L32.5049 11.123L31.4702 8.40211C31.8582 7.88385 32.2462 7.49515 32.9576 6.97689C33.2809 6.71776 33.7336 6.45863 34.3157 6.13471C34.5097 6.00515 34.7037 5.94036 34.8977 5.8108C35.3504 5.61645 37.2259 4.64471 39.8774 4.64471C40.8474 4.64471 44.081 4.64471 47.1852 6.91211C51.8415 10.3456 52.0355 15.9169 52.0355 16.3704C52.1001 20.3869 50.16 23.1726 49.2546 24.2739L52.6175 27.6426Z" fill="white"/>
</svg>
