<svg width="217" height="41" viewBox="0 0 217 41" fill="none" xmlns="http://www.w3.org/2000/svg">
<path d="M88.5 35.6C87.1 35.6 85.8 35.1 83.6 33.7V35.6H78V4H83.6V16.8C85.3 15.3 86.7 14.8 88.5 14.7C91.7 14.6 94.3 15.8 96.1 17.9C98 20 98.9 22.4 98.9 25.2C98.9 28 98 30.4 96.1 32.5C94.3 34.6 91.7 35.6 88.5 35.6ZM83.6 23.6V27.1C83.9 29.4 85.5 30.7 88.3 31.1C92.1 31 94.1 28.8 94.3 24.7C93.9 21.3 91.8 19.5 88.3 19.2C85.5 19.6 83.9 21.1 83.6 23.6Z" fill="#3D3D3D"/>
<path d="M102.4 9.3C102.4 7.7 103.5 6.5 105.4 6.5C107.3 6.5 108.4 7.7 108.4 9.3C108.4 10.9 107.3 12.1 105.4 12.1C103.5 12 102.4 10.9 102.4 9.3ZM102.6 14.6H108V35.6H102.6V14.6Z" fill="#3D3D3D"/>
<path d="M117 33.6C115.6 32.3 114.9 30.6 114.9 28.5V19H111.7V14.6H114.9V8.80001L120.5 8.20001V14.6H123.7V19H120.5V27.7C120.5 30.1 121.6 31 123.3 31C123.5 31 123.9 30.9 124.8 30.7L126 34.7C124.8 35.4 123.8 35.6 122.7 35.6C120.3 35.6 118.4 34.9 117 33.6Z" fill="#3D3D3D"/>
<path d="M129.3 9.3C129.3 7.7 130.4 6.5 132.3 6.5C134.2 6.5 135.3 7.7 135.3 9.3C135.3 10.9 134.2 12.1 132.3 12.1C130.5 12 129.3 10.9 129.3 9.3ZM129.5 14.6H134.9V35.6H129.5V14.6Z" fill="#3D3D3D"/>
<path d="M149.3 35.8C146.3 35.8 143.7 34.8 141.7 32.7C139.7 30.6 138.6 28.1 138.6 25C138.6 21.9 139.6 19.4 141.7 17.3C143.8 15.2 146.3 14.2 149.3 14.2C152.3 14.2 154.9 15.2 156.9 17.3C158.9 19.4 160 21.9 160 25C160 28.1 159 30.6 156.9 32.7C154.8 34.8 152.3 35.8 149.3 35.8ZM149.3 19.1C147.6 19.1 146.2 19.7 145.2 20.8C144.1 21.9 143.6 23.4 143.6 25.1C143.6 26.8 144.1 28.2 145.2 29.4C146.2 30.6 147.6 31.1 149.3 31.1C151 31.1 152.4 30.5 153.4 29.4C154.5 28.2 155 26.8 155 25.1C155 23.4 154.5 22 153.4 20.8C152.4 19.7 151 19.1 149.3 19.1Z" fill="#3D3D3D"/>
<path d="M176.8 24C176.8 21 175.3 19.3 172.3 19.2C171 19.3 169.9 20.3 168.9 22.1V35.6H163.3L163.4 14.6H168.9V16.9C171 15.2 172.5 14.7 174.2 14.7C176.9 14.7 178.9 15.5 180.3 17.1C181.7 18.7 182.4 20.6 182.4 22.7V35.8H176.8V24Z" fill="#3D3D3D"/>
<path d="M185.8 34.4L194.9 19.2H185.8V14.6H202.5V15.9L193.4 31H202.5V35.6H185.8V34.4Z" fill="#3D3D3D"/>
<path d="M66 34.3439L63.242 37L59.1049 32.7341L58.9427 32.5732C55.1301 35.3098 50.9119 35.4707 50.4252 35.4707C49.614 35.4707 44.828 35.4707 40.6098 31.5268C40.1231 31.1244 39.7175 30.722 39.393 30.3195C38.4196 29.2732 37.8517 28.3878 36.9594 26.939C36.1483 25.0878 35.3371 23.7195 34.4448 21.3854C33.6336 19.1317 32.9846 17.039 31.2811 14.8659C31.2811 14.8659 31.2811 14.8659 31.2811 14.7854C30.6322 14.061 28.8476 12.3707 26.0895 11.8878C25.2783 11.7268 22.6014 11.4049 20.0056 13.0951C19.6 13.3366 16.5175 15.3488 15.9497 19.2122C15.8685 19.6951 15.5441 22.5122 17.2476 25.2488C19.2755 28.3878 22.9259 29.5951 26.0084 29.1927C27.3063 29.0317 30.1455 27.8244 33.0657 24.7659C33.3091 25.3293 33.5524 25.8122 33.7958 26.3756C33.958 26.778 34.1203 27.1 34.3636 27.5024C34.607 27.9854 34.8504 28.4683 35.0937 28.9512C35.4182 29.5951 35.6615 30.1585 35.986 30.8024C35.4993 31.2854 34.7692 31.8488 33.8769 32.4927C33.1469 32.9756 32.3357 33.4585 31.4434 33.9415C30.8755 34.1829 28.5231 35.3902 25.1972 35.3902C23.9804 35.3902 19.9245 35.3902 16.0308 32.5732C10.1902 28.3073 9.94685 21.3854 9.94685 20.822C9.62238 16.3951 11.5692 13.0951 12.786 11.4854L8 6.6561L10.6769 4L15.3818 8.82927C18.7888 6.17317 23.007 5.36829 26.414 5.77073C29.3343 6.17317 31.6056 7.46098 31.9301 7.70244C33.5524 8.66829 34.6881 9.79512 35.4182 10.6C35.5804 10.761 35.6615 10.922 35.8238 11.0829C35.9049 11.1634 35.986 11.2439 35.986 11.3244C35.986 11.4049 36.0671 11.4049 36.0671 11.4854C36.7161 12.3707 37.6895 14.222 38.8252 16.7171C40.2853 19.8561 42.151 24.2829 42.7189 25.2488C42.8 25.3293 42.8 25.4098 42.8811 25.4902C43.0434 25.6512 43.2056 25.9732 43.449 26.2146C43.9357 26.778 45.8014 28.7902 48.8028 29.2732C49.614 29.4341 52.2909 29.7561 54.8867 28.0659C55.2923 27.8244 58.3748 25.8122 58.9427 21.9488C59.0238 21.4659 59.3483 18.6488 57.6448 15.9122C55.6168 12.7732 51.9664 11.5659 48.8839 11.9683C47.586 12.1293 44.7469 13.0951 41.8266 16.1537L40.772 13.8195L39.4741 10.439C39.9608 9.79512 40.4476 9.3122 41.3399 8.66829C41.7455 8.34634 42.3133 8.02439 43.0434 7.62195C43.2867 7.46098 43.5301 7.38049 43.7734 7.21951C44.3413 6.97805 46.6937 5.77073 50.0196 5.77073C51.2364 5.77073 55.2923 5.77073 59.186 8.5878C65.0266 12.8537 65.2699 19.7756 65.2699 20.339C65.351 25.3293 62.9175 28.7902 61.7818 30.1585L66 34.3439Z" fill="#455AE4"/>
</svg>
