<svg width="67" height="67" viewBox="0 0 67 67" fill="none" xmlns="http://www.w3.org/2000/svg">
<path d="M22.7594 13.2531C22.7594 12.9458 22.9146 12.6384 23.2249 12.4691L33.0519 7.10908C33.3185 6.96364 33.6408 6.96364 33.9074 7.10908L43.7344 12.4691C44.0447 12.6384 44.1998 12.9458 44.1998 13.2531V18.6131H52.2398C52.7334 18.6131 53.133 19.0132 53.133 19.5067V37.7364L62.4944 42.8426C62.8047 43.012 62.9599 43.3193 62.9599 43.627V54.347C62.9599 54.6738 62.7812 54.9748 62.4944 55.131L52.6674 60.491C52.3791 60.6484 52.0606 60.6286 51.8086 60.4892L41.9854 55.1311C41.6987 54.9748 41.5199 54.6738 41.5199 54.3471V50.7735H25.4399V54.3471C25.4399 54.6738 25.2612 54.9748 24.9744 55.1311L15.1513 60.4892C14.8993 60.6286 14.5807 60.6485 14.2925 60.491L4.46549 55.131C4.17872 54.9748 4 54.6738 4 54.347V43.627C4 43.3193 4.15516 43.012 4.46549 42.8426L13.8268 37.7364V19.5067C13.8268 19.0132 14.2265 18.6131 14.72 18.6131H22.76L22.7594 13.2531ZM43.3064 53.8159L51.3464 58.2015V49.5166L43.3064 45.1313V53.8159ZM22.7594 20.4001H15.6127V37.7359L24.974 42.842C25.2843 43.0114 25.4395 43.3187 25.4395 43.6264V48.9864H41.5195V43.6264C41.5195 43.3187 41.6746 43.0114 41.985 42.842L51.3463 37.7359V20.4001H44.1995V23.9733C44.1995 24.3005 44.0208 24.6011 43.734 24.7577L33.9109 30.1158C33.6589 30.2549 33.3403 30.2747 33.052 30.1177L23.2251 24.7577C22.9383 24.601 22.7596 24.3004 22.7596 23.9733L22.7594 20.4001ZM61.1725 53.8159V45.1313L53.1325 49.5166V58.2015L61.1725 53.8159ZM52.2393 47.9687L60.2004 43.6264L52.2393 39.2838L44.2781 43.6264L52.2393 47.9687ZM5.78624 45.1312V53.8158L13.8262 58.2014V49.5165L5.78624 45.1312ZM23.6523 53.8158V45.1312L15.6123 49.5165V58.2014L23.6523 53.8158ZM14.7191 47.9686L22.6802 43.6263L14.7191 39.2837L6.75793 43.6263L14.7191 47.9686ZM24.546 23.4428L32.586 27.828V19.1435L24.546 14.7578V23.4428ZM42.4121 14.7578L34.3721 19.1435V27.828L42.4121 23.4428V14.7578ZM41.44 13.2529L33.4789 8.91065L25.5177 13.2529L33.4789 17.5956L41.44 13.2529Z" fill="#404040"/>
</svg>
