<svg width="67" height="67" viewBox="0 0 67 67" fill="none" xmlns="http://www.w3.org/2000/svg">
<path d="M25.6273 51.9116C25.6273 53.1372 24.6335 54.131 23.4079 54.131C22.1823 54.131 21.1885 53.1372 21.1885 51.9116C21.1885 50.6859 22.1823 49.6921 23.4079 49.6921C24.6335 49.6921 25.6273 50.6859 25.6273 51.9116Z" fill="#404040" stroke="#404040" stroke-width="0.5"/>
<path d="M51.1296 51.0742C51.1296 51.5599 50.7359 51.9536 50.2502 51.9536C49.7646 51.9536 49.3708 51.5599 49.3708 51.0742C49.3708 50.5885 49.7646 50.1948 50.2502 50.1948C50.7359 50.1948 51.1296 50.5885 51.1296 51.0742Z" fill="#404040" stroke="#404040" stroke-width="0.5"/>
<path d="M57.7874 21.5109V21.3434V15.9834V15.8159C57.6199 13.6384 53.9349 12.4659 50.2499 12.4659C46.5649 12.4659 42.9218 13.5965 42.7124 15.8159V15.9834V21.3434V21.5109C42.8799 23.5209 46.0205 24.6934 49.4124 24.819V30.5977C48.4074 30.8908 47.5699 31.6865 47.3187 32.6915H37.6879V11.754C37.6879 10.372 36.5573 9.24146 35.1754 9.24146H11.7254C10.3435 9.24146 9.21289 10.372 9.21289 11.754V55.304C9.21289 56.6859 10.3435 57.8165 11.7254 57.8165H35.1754C36.5573 57.8165 37.6879 56.6859 37.6879 55.304V34.3665H47.3187C47.6118 35.3715 48.4074 36.209 49.4124 36.4602V42.1971C46.0624 42.3646 42.9218 43.4952 42.7124 45.5052V45.6727V51.0327V51.2002C42.8799 53.3777 46.5649 54.5502 50.2499 54.5502C53.9349 54.5502 57.578 53.4196 57.7874 51.2002V51.0327V45.7146V45.5471C57.6199 43.5371 54.4793 42.3646 51.0874 42.2391V36.4603C52.3855 36.0834 53.3068 34.9109 53.3068 33.5291C53.3068 32.1472 52.3438 30.9328 51.0874 30.5978V24.8609C54.4374 24.6934 57.578 23.5628 57.7874 21.5109V21.5109ZM29.3124 10.9163V12.8843C29.3124 13.345 28.9355 13.7218 28.4749 13.7218H18.4249C17.9643 13.7218 17.5874 13.345 17.5874 12.8843V10.9163H29.3124ZM36.0124 55.3038C36.0124 55.7644 35.6355 56.1413 35.1749 56.1413H11.7249C11.2643 56.1413 10.8874 55.7644 10.8874 55.3038V11.7538C10.8874 11.2931 11.2643 10.9163 11.7249 10.9163H15.9124V12.8843C15.9124 14.2663 17.043 15.3968 18.4249 15.3968H28.4749C29.8568 15.3968 30.9874 14.2663 30.9874 12.8843V10.9163H35.1749C35.6355 10.9163 36.0124 11.2931 36.0124 11.7538V32.6913H30.9874V28.5038C30.9874 28.2944 30.9037 28.085 30.7362 27.9175L25.7112 22.8925C25.5437 22.725 25.3343 22.6413 25.1249 22.6413H18.4249C17.043 22.6413 15.9124 23.7718 15.9124 25.1538V41.9038C15.9124 43.2857 17.043 44.4163 18.4249 44.4163H28.4749C29.8568 44.4163 30.9874 43.2857 30.9874 41.9038V34.3663H36.0124V55.3038ZM26.3816 32.6913C26.0048 31.3932 24.8322 30.4718 23.4504 30.4718C21.7754 30.4718 20.3935 31.8538 20.3935 33.5288C20.3935 35.2038 21.7754 36.5857 23.4504 36.5857C24.8323 36.5857 26.0466 35.6226 26.3816 34.3663H29.3129V41.9038C29.3129 42.3644 28.936 42.7413 28.4754 42.7413H18.4254C17.9648 42.7413 17.5879 42.3644 17.5879 41.9038V25.1538C17.5879 24.6931 17.9648 24.3163 18.4254 24.3163H24.7904L29.3129 28.8388V32.6913H26.3816ZM24.8322 33.5288C24.8322 34.2825 24.2041 34.9107 23.4503 34.9107C22.6965 34.9107 22.0684 34.2826 22.0684 33.5288C22.0684 32.775 22.6965 32.1468 23.4503 32.1468C24.2041 32.1468 24.8322 32.775 24.8322 33.5288ZM50.2501 14.1409C53.8932 14.1409 56.1126 15.3134 56.1126 15.9834C56.1126 16.6534 53.8932 17.8259 50.2501 17.8259C46.607 17.8259 44.3876 16.6534 44.3876 15.9834C44.3876 15.3553 46.607 14.1409 50.2501 14.1409ZM44.3876 21.3434V18.2865C45.8532 19.0821 48.0307 19.5009 50.2501 19.5009C52.4695 19.5009 54.647 19.0821 56.1126 18.2865V21.3434C56.1126 21.9715 53.8932 23.1859 50.2501 23.1859C46.607 23.1859 44.3876 22.0134 44.3876 21.3434ZM50.2501 52.9176C46.607 52.9176 44.3876 51.7451 44.3876 51.0751V48.0182C45.8532 48.8138 48.0307 49.2326 50.2501 49.2326C52.4695 49.2326 54.647 48.8139 56.1126 48.0182V51.0751C56.1126 51.7032 53.8932 52.9176 50.2501 52.9176ZM56.1126 45.7151C56.1126 46.3851 53.8932 47.5576 50.2501 47.5576C46.607 47.5576 44.3876 46.3851 44.3876 45.7151C44.3876 45.087 46.607 43.8726 50.2501 43.8726C53.8932 43.8726 56.1126 45.0451 56.1126 45.7151ZM51.632 33.5297C51.632 34.2835 51.0039 34.9116 50.2501 34.9116C49.4963 34.9116 48.8682 34.2835 48.8682 33.5297C48.8682 32.7759 49.4963 32.1478 50.2501 32.1478C51.0039 32.1478 51.632 32.7759 51.632 33.5297Z" fill="#404040" stroke="#404040" stroke-width="0.5"/>
<path d="M51.1296 21.3435C51.1296 21.8292 50.7359 22.2229 50.2502 22.2229C49.7646 22.2229 49.3708 21.8292 49.3708 21.3435C49.3708 20.8578 49.7646 20.4641 50.2502 20.4641C50.7359 20.4641 51.1296 20.8578 51.1296 21.3435Z" fill="#404040" stroke="#404040" stroke-width="0.5"/>
</svg>
