<svg width="67" height="67" viewBox="0 0 67 67" fill="none" xmlns="http://www.w3.org/2000/svg">
<path d="M55.9406 14.6443H11.0428C10.2598 14.6443 9.61938 15.2848 9.61938 16.0677V50.9157C9.61938 51.6987 10.2598 52.3391 11.0428 52.3391H55.9329C56.7159 52.3391 57.3563 51.6987 57.3563 50.9157L57.3568 16.0677C57.3638 15.2852 56.7233 14.6443 55.9403 14.6443H55.9406ZM54.5172 17.4916V23.8118H12.4664V17.4916H54.5172ZM12.4664 49.4913V26.658H54.5096V49.4837H12.4664V49.4913Z" fill="#404040"/>
<path d="M26.2679 32.6021C25.7129 32.047 24.8088 32.047 24.2537 32.6021L19.2784 37.5774C18.7233 38.1325 18.7233 39.0365 19.2784 39.5917L24.2537 44.567C24.5312 44.8445 24.8941 44.987 25.257 44.987C25.62 44.987 25.9829 44.8445 26.2604 44.567C26.8155 44.0119 26.8155 43.1079 26.2604 42.5527L22.2891 38.5813L26.2604 34.61C26.8229 34.0544 26.8229 33.1573 26.2679 32.6022L26.2679 32.6021Z" fill="#404040"/>
<path d="M42.7731 32.6021C42.218 32.047 41.314 32.047 40.7588 32.6021C40.2038 33.1572 40.2038 34.0612 40.7588 34.6164L44.7302 38.5877L40.7588 42.559C40.2038 43.1141 40.2038 44.0181 40.7588 44.5733C41.0364 44.8508 41.3993 44.9933 41.7622 44.9933C42.1251 44.9933 42.4881 44.8508 42.7656 44.5733L47.7409 39.598C48.296 39.0429 48.296 38.1389 47.7409 37.5837L42.7731 32.6021Z" fill="#404040"/>
<path d="M37.67 30.7873C36.9724 30.4174 36.111 30.6805 35.7411 31.3711L28.766 44.4534C28.3961 45.1441 28.6593 46.0124 29.3499 46.3823C29.5634 46.496 29.7913 46.5531 30.0191 46.5531C30.5246 46.5531 31.0225 46.2825 31.2787 45.7985L38.2613 32.7161C38.6312 32.0191 38.3675 31.1581 37.67 30.7878L37.67 30.7873Z" fill="#404040"/>
<path d="M15.7913 22.0758H19.649C20.432 22.0758 21.0724 21.4353 21.0724 20.6524C21.0724 19.8694 20.4319 19.229 19.649 19.229H15.7913C15.0083 19.229 14.3679 19.8695 14.3679 20.6524C14.3679 21.4353 15.0084 22.0758 15.7913 22.0758Z" fill="#404040"/>
</svg>
