<svg width="67" height="67" viewBox="0 0 67 67" fill="none" xmlns="http://www.w3.org/2000/svg">
<path d="M29.927 35.263H24.567V20.969H27.247C27.7401 20.969 28.1402 20.5693 28.1402 20.0758C28.1402 19.5823 27.7401 19.1826 27.247 19.1826H20.1002C19.6067 19.1826 19.207 19.5823 19.207 20.0758C19.207 20.5693 19.6067 20.969 20.1002 20.969H22.7802V35.263H17.4202C15.3627 35.2604 13.4357 36.2702 12.2669 37.9636C11.0978 39.6566 10.8365 41.8165 11.5681 43.7394C12.2994 45.6626 13.93 47.1029 15.9288 47.5911C17.9276 48.079 20.0386 47.553 21.574 46.1838C21.7295 46.0503 21.9284 45.9789 22.1333 45.983H25.2145C25.4186 45.9793 25.6168 46.0503 25.7719 46.1831C26.9085 47.2083 28.3861 47.7739 29.9168 47.7694C30.3756 47.7691 30.8332 47.7204 31.2819 47.6247C32.4537 47.3649 33.5259 46.773 34.3709 45.9205C35.2159 45.0685 35.798 43.9909 36.0478 42.8169C36.4374 40.9711 35.9738 39.0478 34.7863 37.5822C33.5985 36.1166 31.8132 35.2645 29.9269 35.263L29.927 35.263ZM34.298 42.4614C33.9645 44.0148 32.8298 45.2738 31.3193 45.7665C29.8085 46.2593 28.1499 45.9112 26.9647 44.8527C26.4816 44.4261 25.8587 44.1924 25.2146 44.1962H22.1334C21.4885 44.1921 20.8648 44.4261 20.3818 44.8527C19.1962 45.9101 17.538 46.2574 16.0279 45.765C14.5178 45.2726 13.3834 44.0141 13.0492 42.4613C12.7695 41.1329 13.1041 39.7492 13.9596 38.6948C14.8061 37.6531 16.0777 37.0486 17.4202 37.0493H29.9272C31.2698 37.0486 32.5411 37.6532 33.3879 38.6948C34.2433 39.7492 34.5776 41.1329 34.2983 42.4613L34.298 42.4614Z" fill="#404040"/>
<path d="M55.7248 7.46118C55.2223 6.95868 54.5407 6.67603 53.8295 6.67603C53.1188 6.67603 52.4372 6.95868 51.9343 7.46118L50.0398 9.35604L40.6463 18.7495V11.1428C40.6448 9.95837 40.1737 8.82329 39.3362 7.98579C38.4991 7.14866 37.3636 6.67757 36.1795 6.67603H11.1665C9.98204 6.67753 8.84696 7.14862 8.00946 7.98579C7.17233 8.82329 6.70124 9.95837 6.69971 11.1428V55.8089C6.7012 56.9933 7.1723 58.1284 8.00946 58.9659C8.84696 59.803 9.98204 60.2741 11.1665 60.2757H36.1795C37.3636 60.2742 38.4991 59.8031 39.3362 58.9659C40.1737 58.1284 40.6448 56.9933 40.6463 55.8089V30.68L44.0542 29.9225C44.2419 29.8736 44.424 29.804 44.5964 29.715C44.6173 29.7083 44.6375 29.7008 44.6573 29.6918C44.9119 29.5681 45.1452 29.4043 45.3486 29.2069L57.6192 16.9354L59.514 15.0405V15.0409C60.0165 14.538 60.2992 13.8564 60.2992 13.1457C60.2992 12.4345 60.0165 11.7529 59.514 11.2504L55.7248 7.46118ZM37.4117 29.5626L38.557 24.4007L42.577 28.4207L37.4117 29.5626ZM11.1669 8.46331H36.1799C36.8907 8.46331 37.5723 8.74559 38.0751 9.24809C38.5776 9.75059 38.8599 10.4326 38.8599 11.1433V13.8233H8.4869V11.1433C8.4869 10.4326 8.76918 9.75059 9.27168 9.24809C9.77418 8.74559 10.4561 8.46331 11.1669 8.46331H11.1669ZM36.1799 58.4893H11.1669C10.4561 58.4893 9.77415 58.2071 9.27165 57.7046C8.76915 57.2021 8.48687 56.5201 8.48687 55.8093V53.1293H38.8599V55.8093C38.8599 56.5201 38.5776 57.2021 38.0751 57.7046C37.5722 58.2071 36.8906 58.4893 36.1799 58.4893H36.1799ZM38.8599 51.3425L8.48688 51.3429V15.6089H38.8599V20.5356L37.7674 21.6274C37.5708 21.8304 37.4074 22.0633 37.2832 22.3172C37.2743 22.3377 37.2672 22.3583 37.2601 22.3796C37.1707 22.5538 37.1004 22.7371 37.0511 22.9262L35.6654 29.1679V29.1682C35.5248 29.7672 35.7032 30.3968 36.1376 30.8328C36.5717 31.2691 37.2005 31.4505 37.8003 31.3121L38.8598 31.0773L38.8599 51.3425ZM44.3549 27.6743L39.3014 22.6209L40.3786 21.5411L40.385 21.534L50.6714 11.2505L52.5662 13.1461L43.0905 22.6218C42.9181 22.7882 42.8198 23.017 42.8179 23.2563C42.8157 23.496 42.9099 23.7267 43.0793 23.896C43.2487 24.0654 43.4794 24.1596 43.719 24.1574C43.9583 24.1555 44.1871 24.0572 44.3535 23.8848L53.8292 14.4091L55.7248 16.3039L44.3549 27.6743ZM58.2516 13.7776L56.9887 15.0409L51.9349 9.98708L53.1982 8.72413C53.3657 8.55626 53.593 8.46203 53.8301 8.46203C54.0671 8.46203 54.2948 8.55625 54.4623 8.72413L58.252 12.5138L58.2516 12.5135C58.4195 12.681 58.5137 12.9087 58.5137 13.1457C58.5137 13.3828 58.4195 13.6101 58.2516 13.7776L58.2516 13.7776Z" fill="#404040"/>
<path d="M19.2068 40.623H18.3132V39.7294C18.3132 39.2362 17.9135 38.8362 17.42 38.8362C16.9265 38.8362 16.5268 39.2362 16.5268 39.7294V40.6226L15.6332 40.623C15.14 40.623 14.74 41.0227 14.74 41.5162C14.74 42.0097 15.14 42.4094 15.6332 42.4094H16.5264V43.3026L16.5268 43.303C16.5268 43.7961 16.9265 44.1962 17.42 44.1962C17.9135 44.1962 18.3132 43.7961 18.3132 43.303V42.4094H19.2068C19.6999 42.4094 20.1 42.0097 20.1 41.5162C20.1 41.0227 19.6999 40.623 19.2068 40.623H19.2068Z" fill="#404040"/>
<path d="M30.82 38.8359H29.9268C29.4333 38.8359 29.0332 39.236 29.0332 39.7291C29.0332 40.2227 29.4333 40.6227 29.9268 40.6227H30.82C31.3135 40.6227 31.7132 40.2227 31.7132 39.7291C31.7132 39.236 31.3135 38.8359 30.82 38.8359Z" fill="#404040"/>
<path d="M30.82 42.4089H29.9268C29.4333 42.4089 29.0332 42.809 29.0332 43.3025C29.0332 43.7957 29.4333 44.1957 29.9268 44.1957H30.82C31.3135 44.1957 31.7132 43.7957 31.7132 43.3025C31.7132 42.809 31.3135 42.4089 30.82 42.4089Z" fill="#404040"/>
<path d="M24.567 38.8359H22.7802C22.2866 38.8359 21.887 39.236 21.887 39.7291C21.887 40.2227 22.2866 40.6227 22.7802 40.6227H24.567C25.0601 40.6227 25.4602 40.2227 25.4602 39.7291C25.4602 39.236 25.0601 38.8359 24.567 38.8359Z" fill="#404040"/>
<path d="M26.3529 12.0361H27.2465C27.7397 12.0361 28.1397 11.636 28.1397 11.1428C28.1397 10.6493 27.7397 10.2493 27.2465 10.2493H26.3529C25.8598 10.2493 25.4597 10.6493 25.4597 11.1428C25.4597 11.636 25.8598 12.0361 26.3529 12.0361Z" fill="#404040"/>
<path d="M20.1 12.0361H22.78C23.2735 12.0361 23.6732 11.636 23.6732 11.1428C23.6732 10.6493 23.2735 10.2493 22.78 10.2493H20.1C19.6065 10.2493 19.2068 10.6493 19.2068 11.1428C19.2068 11.636 19.6065 12.0361 20.1 12.0361Z" fill="#404040"/>
<path d="M25.4599 54.916H21.8867C21.3932 54.916 20.9932 55.3161 20.9932 55.8092C20.9932 56.3027 21.3932 56.7028 21.8867 56.7028H25.4599C25.9535 56.7028 26.3532 56.3027 26.3532 55.8092C26.3532 55.3161 25.9535 54.916 25.4599 54.916Z" fill="#404040"/>
</svg>
