<svg width="67" height="67" viewBox="0 0 67 67" fill="none" xmlns="http://www.w3.org/2000/svg">
<path d="M56.5855 24.0999C56.3018 21.865 55.2132 19.8097 53.5239 18.3191C51.8346 16.8284 49.6603 16.004 47.4074 16H20.5972C18.3443 16.0039 16.1695 16.8283 14.4802 18.3191C12.7909 19.8097 11.7027 21.865 11.4191 24.0999L9.05454 42.9695C8.76784 45.2689 9.62305 47.5625 11.3447 49.1129C13.0663 50.6633 15.4372 51.2744 17.6935 50.7499C19.9499 50.2249 21.8076 48.6305 22.6682 46.4792L25.286 39.9395C25.4499 39.9606 25.6153 39.9718 25.7807 39.9723C26.6002 39.9713 27.3971 39.7032 28.0508 39.2091C28.7049 38.7144 29.1794 38.0207 29.404 37.2326H38.596C38.8205 38.0207 39.2951 38.7145 39.9492 39.2091C40.6029 39.7032 41.3998 39.9713 42.2193 39.9723C42.3847 39.9718 42.5501 39.9606 42.714 39.9395L45.3318 46.4792C46.1924 48.6305 48.0501 50.2248 50.3065 50.7499C52.5629 51.2743 54.9337 50.6633 56.6553 49.1129C58.377 47.5625 59.2321 45.269 58.9455 42.9695L56.5855 24.0999ZM26.8083 18.0548H41.1915V21.137C41.1901 22.0822 40.4244 22.8478 39.4792 22.8493H28.5201C27.5749 22.8479 26.8093 22.0822 26.8078 21.137L26.8083 18.0548ZM25.7809 37.9175C25.0881 37.9175 24.4638 37.5002 24.1986 36.8603C23.934 36.2208 24.0803 35.4841 24.57 34.9944C25.0597 34.5046 25.7965 34.3584 26.4359 34.623C27.0758 34.8882 27.4931 35.5125 27.4931 36.2053C27.4917 37.1505 26.726 37.9161 25.7808 37.9176L25.7809 37.9175ZM42.2194 37.9175C41.5267 37.9175 40.9023 37.5002 40.6372 36.8603C40.3725 36.2208 40.5188 35.4841 41.0085 34.9944C41.4983 34.5046 42.235 34.3584 42.8744 34.623C43.5144 34.8882 43.9317 35.5125 43.9317 36.2053C43.9302 37.1505 43.1645 37.9161 42.2193 37.9176L42.2194 37.9175ZM55.6884 47.174C54.5318 48.4837 52.7789 49.1001 51.0571 48.8032C49.3355 48.5062 47.8908 47.3379 47.24 45.7161L44.6001 39.1217C45.5297 38.3633 46.0419 37.2078 45.9803 36.0095C45.9182 34.8119 45.2895 33.715 44.287 33.0565C43.2845 32.398 42.0282 32.2566 40.9038 32.6754C39.78 33.0947 38.9229 34.0238 38.5961 35.1778H29.4041C29.0773 34.0237 28.2202 33.0946 27.0963 32.6754C25.9721 32.2566 24.7157 32.398 23.7132 33.0565C22.7107 33.715 22.0821 34.8119 22.0199 36.0095C21.9582 37.2077 22.4705 38.3633 23.4001 39.1217L20.7601 45.7161C20.1491 47.2435 18.8301 48.3756 17.2283 48.7484C15.6261 49.1212 13.9431 48.6878 12.7205 47.587C11.4979 46.4867 10.8903 44.858 11.0928 43.2259L13.4519 24.3564C13.6721 22.6171 14.519 21.0173 15.8341 19.8573C17.1487 18.6978 18.841 18.0569 20.5944 18.0549H24.7535V21.137C24.755 22.1356 25.1522 23.093 25.8587 23.799C26.5647 24.5055 27.5221 24.9027 28.5207 24.9042H39.4797C40.4782 24.9027 41.4357 24.5055 42.1417 23.799C42.8481 23.093 43.2454 22.1356 43.2469 21.137V18.0549H47.403C49.157 18.0563 50.8498 18.6967 52.1652 19.8568C53.4803 21.0168 54.3277 22.6166 54.5483 24.3564L56.9098 43.2259C57.0869 44.656 56.6422 46.0938 55.6882 47.1741L55.6884 47.174Z" fill="#404040"/>
<path d="M49.7533 26.958H48.041V25.2457C48.041 24.6782 47.5811 24.2183 47.0136 24.2183C46.4461 24.2183 45.9862 24.6782 45.9862 25.2457V26.958H44.2738C43.7063 26.958 43.2464 27.4179 43.2464 27.9854C43.2464 28.5529 43.7063 29.0128 44.2738 29.0128H45.9862V30.7252C45.9862 31.2927 46.4461 31.7526 47.0136 31.7526C47.5811 31.7526 48.041 31.2927 48.041 30.7252V29.0128H49.7533C50.3209 29.0128 50.7807 28.5529 50.7807 27.9854C50.7807 27.4179 50.3209 26.958 49.7533 26.958Z" fill="#404040"/>
<path d="M23.7673 25.2044C23.575 25.0117 23.3138 24.9036 23.0413 24.9036C22.7688 24.9036 22.5075 25.0117 22.3152 25.2044L20.9865 26.5318L19.6578 25.2044C19.2532 24.8272 18.622 24.8385 18.2306 25.2294C17.8397 25.6208 17.8284 26.2519 18.2056 26.6566L19.533 27.9853L18.2056 29.314C18.0016 29.5039 17.8837 29.769 17.8788 30.0474C17.8739 30.3263 17.9825 30.5949 18.1797 30.792C18.3769 30.9892 18.6455 31.0978 18.9243 31.0929C19.2027 31.088 19.4679 30.9701 19.6577 30.7661L20.9864 29.4387L22.3152 30.7661C22.7198 31.1433 23.3509 31.1321 23.7423 30.7412C24.1333 30.3498 24.1445 29.7186 23.7673 29.314L22.4399 27.9852L23.7673 26.6565C23.9601 26.4642 24.0682 26.203 24.0682 25.9305C24.0682 25.658 23.9601 25.3967 23.7673 25.2044L23.7673 25.2044Z" fill="#404040"/>
</svg>
