<svg width="67" height="67" viewBox="0 0 67 67" fill="none" xmlns="http://www.w3.org/2000/svg">
<path d="M59.2034 28.108C59.2026 27.7745 59.1092 27.4481 58.9331 27.165C58.7573 26.882 58.5057 26.6536 58.2074 26.5051L37.7637 16.2733V7.56137C37.7637 6.85061 37.4815 6.16901 36.979 5.66613C36.4761 5.16363 35.7945 4.88135 35.0837 4.88135H29.7237C29.013 4.88135 28.3314 5.16363 27.8285 5.66613C27.326 6.169 27.0437 6.85059 27.0437 7.56137V16.2733L6.5953 26.5071C6.19487 26.7048 5.88342 27.0454 5.72153 27.4616C5.56001 27.8781 5.56001 28.3398 5.72153 28.7559C5.88342 29.1721 6.19487 29.5127 6.5953 29.7105L11.4191 32.1224L6.5953 34.5462C6.19487 34.744 5.88342 35.0846 5.72153 35.5008C5.56001 35.9169 5.56001 36.3786 5.72153 36.7948C5.88342 37.2113 6.19487 37.5519 6.5953 37.7497L11.4248 40.1616L6.5953 42.5851C6.19487 42.7829 5.88267 43.1235 5.72078 43.54C5.55889 43.9565 5.55889 44.4183 5.72078 44.8347C5.88267 45.2512 6.19487 45.5919 6.5953 45.7896L31.5767 58.2861C32.0983 58.5448 32.7107 58.5448 33.2323 58.2861L58.2128 45.7877C58.6132 45.5896 58.9246 45.2482 59.0858 44.8317C59.2473 44.4152 59.2466 43.9531 59.0843 43.537C58.9217 43.1208 58.6091 42.7806 58.2083 42.5832L53.3788 40.168L58.2128 37.7471C58.6128 37.5485 58.9239 37.2075 59.0851 36.791C59.2462 36.3745 59.2458 35.9128 59.0836 35.497C58.9209 35.0808 58.6087 34.7406 58.2083 34.5432L53.38 32.1279L58.2128 29.7096C58.5108 29.5616 58.7617 29.3331 58.9366 29.0501C59.112 28.7671 59.2047 28.4407 59.2043 28.1079L59.2034 28.108ZM32.4034 25.428C32.6404 25.428 32.8674 25.3338 33.0352 25.1663C33.2027 24.9988 33.2966 24.7714 33.2966 24.5344V11.1344H35.9766V27.2144H28.8302V11.1344H31.5102V24.5344C31.5102 24.7714 31.604 24.9988 31.7715 25.1663C31.9394 25.3338 32.1663 25.428 32.4034 25.428H32.4034ZM35.246 29.0012L32.4034 33.4617L29.5588 29.0012H35.246ZM28.8302 7.56119C28.8302 7.06766 29.2299 6.66798 29.7234 6.66798H35.0834C35.3204 6.66798 35.5474 6.76182 35.7152 6.92933C35.8827 7.0972 35.9766 7.32415 35.9766 7.56119V9.34799H28.8302L28.8302 7.56119ZM57.4076 44.1882L32.3745 56.6885L7.39878 44.1815L13.4243 41.1646L31.5736 50.2455C32.0952 50.5057 32.7087 50.5057 33.2306 50.2455L51.38 41.1646L57.4076 44.1882ZM57.4076 36.1482L32.3745 48.6485L7.39878 36.1415L13.4235 33.1246L31.5757 42.207L31.5754 42.2074C32.0969 42.4657 32.7094 42.4657 33.2309 42.2074L51.3812 33.1245L57.4076 36.1482ZM32.3745 40.606L7.39878 28.099L27.0432 18.272L27.0436 27.5959C27.0428 28.1014 27.1853 28.5968 27.4545 29.0253L30.8894 34.4193V34.4189C31.2154 34.9397 31.7859 35.256 32.4002 35.2572C33.0145 35.2583 33.5862 34.9438 33.914 34.4245L37.356 29.0189C37.6233 28.5923 37.7647 28.0991 37.7635 27.5959V18.272L57.4079 28.1124L32.3745 40.606Z" fill="#404040"/>
</svg>
