<svg width="67" height="67" viewBox="0 0 67 67" fill="none" xmlns="http://www.w3.org/2000/svg">
<mask id="path-1-outside-1_326_882" maskUnits="userSpaceOnUse" x="7.11182" y="7.11182" width="53" height="53" fill="black">
<rect fill="white" x="7.11182" y="7.11182" width="53" height="53"/>
<path d="M58.8939 19.4284C58.8557 19.1929 58.714 18.9869 58.5069 18.8672L40.2599 8.33482C39.9339 8.14676 39.5207 8.21294 39.2706 8.4941L33.6556 14.7955L27.7355 8.36775C27.4839 8.09481 27.0767 8.03238 26.7552 8.2182L8.50823 18.7516C8.29923 18.8723 8.15715 19.0809 8.12088 19.3195C8.08462 19.558 8.15827 19.7996 8.32203 19.9768L14.6257 26.8207V47.5773C14.6257 47.8611 14.7771 48.1228 15.0227 48.2645L33.2697 58.7979C33.3927 58.8689 33.5292 58.9041 33.6668 58.9041C33.804 58.9041 33.9408 58.8689 34.0638 58.7979L52.3089 48.2645C52.5545 48.1228 52.706 47.8607 52.706 47.5773V26.8121L58.7023 20.0825C58.8608 19.9046 58.9311 19.6638 58.8933 19.4282L58.8939 19.4284ZM41.3102 42.9741L41.9551 44.4259L41.0473 45.3337L39.5963 44.6895C39.3466 44.5789 39.0579 44.6043 38.8321 44.7561C37.8065 45.4451 36.6736 45.9147 35.4649 46.1518C35.1968 46.2041 34.9751 46.3907 34.8771 46.6453L34.307 48.1255H33.0234L32.4533 46.6449C32.3549 46.3903 32.1332 46.2037 31.8655 46.1514C30.6579 45.914 29.5254 45.4444 28.4994 44.7557C28.2729 44.6039 27.9842 44.5788 27.7352 44.6891L26.2834 45.3341L25.3756 44.4263L26.0198 42.9753C26.1305 42.7255 26.1051 42.4369 25.9533 42.211C25.2642 41.1855 24.7947 40.0526 24.5576 38.8442C24.5052 38.5769 24.3187 38.3544 24.064 38.2565L22.5838 37.6863V36.4028L24.0644 35.8326C24.319 35.7343 24.5056 35.5125 24.558 35.2448C24.7954 34.0365 25.265 32.9043 25.9537 31.8788C26.1055 31.6522 26.1305 31.3636 26.0202 31.1145L25.376 29.6635L26.2838 28.7557L27.7348 29.4007C27.9846 29.5113 28.2732 29.4859 28.499 29.3341C29.5254 28.6451 30.6575 28.1755 31.8651 27.9388C32.1332 27.8865 32.3549 27.6999 32.4529 27.4453L33.023 25.9647H34.3066L34.8767 27.4453C34.9751 27.6999 35.1968 27.8865 35.4645 27.9388C36.6721 28.1762 37.8046 28.6458 38.8306 29.3341C39.0571 29.4859 39.3458 29.511 39.5948 29.4007L41.0466 28.7557L41.9544 29.6635L41.3102 31.1145C41.1995 31.3643 41.2249 31.6529 41.3767 31.8788C42.0658 32.9043 42.5353 34.0372 42.7724 35.2456C42.8248 35.5137 43.0113 35.7354 43.2659 35.8334L44.7462 36.4035V37.6871L43.2656 38.2572C43.0109 38.3556 42.8244 38.5773 42.772 38.845C42.5346 40.0526 42.065 41.1851 41.3767 42.211C41.2249 42.4361 41.1999 42.7248 41.3102 42.9741L41.3102 42.9741ZM43.4626 28.9252L41.7843 27.2468C41.5521 27.0147 41.2006 26.95 40.9011 27.0827L39.3424 27.7751C38.367 27.1754 37.3152 26.7395 36.2052 26.4744L35.5932 24.8843C35.4754 24.5777 35.1811 24.3758 34.8521 24.3758H32.4787C32.1504 24.3758 31.8562 24.5781 31.7377 24.8843L31.1256 26.4744C30.0151 26.7395 28.963 27.1758 27.9876 27.7751L26.4293 27.0827C26.1294 26.95 25.7784 27.0147 25.5462 27.2468L23.8678 28.9252C23.6356 29.1574 23.5702 29.5088 23.7037 29.8083L24.0436 30.5737L17.006 26.5107L33.665 16.8943L50.3241 26.5107L43.2865 30.5729L43.6264 29.8075C43.7595 29.5081 43.6941 29.1574 43.4619 28.9252L43.4626 28.9252ZM10.1607 19.6305L26.9988 9.91069L32.41 15.7859L15.5729 25.5057L10.1607 19.6305ZM16.2125 27.8854L23.8804 32.3119C23.5409 33.0114 23.277 33.7438 23.0953 34.5043L21.5052 35.1163C21.1986 35.2341 20.9967 35.5284 20.9967 35.8574V38.2308C20.9967 38.5591 21.199 38.8533 21.5052 38.9718L23.0949 39.5839C23.36 40.695 23.7967 41.7468 24.3956 42.7223L23.704 44.2798C23.5705 44.5797 23.6359 44.9308 23.8681 45.1629L25.5464 46.8413C25.7786 47.0735 26.1301 47.1389 26.4295 47.0054L27.9883 46.313C28.9637 46.9127 30.0155 47.3486 31.1255 47.6137L31.7375 49.2038C31.8553 49.5104 32.1496 49.7123 32.4786 49.7123H32.8715V56.7357L16.2125 47.1184L16.2125 27.8854ZM34.4594 56.7357V49.7122H34.8524C35.1807 49.7122 35.4749 49.51 35.5934 49.2038L36.2055 47.614C37.3166 47.349 38.3684 46.9123 39.3438 46.3133L40.9014 47.005C41.2013 47.1384 41.5523 47.073 41.7845 46.8408L43.4629 45.1625C43.6951 44.9303 43.7605 44.5788 43.627 44.2794L42.9346 42.721C43.5335 41.7456 43.9702 40.6938 44.2353 39.583L45.8254 38.971C46.132 38.8532 46.3339 38.559 46.3339 38.23V35.8565C46.3339 35.5283 46.1316 35.234 45.8254 35.1155L44.2357 34.5035C44.0536 33.7426 43.79 33.0105 43.4506 32.3103L51.1181 27.8839V47.1176L34.4594 56.7357ZM51.7493 25.5002L34.9064 15.7776L40.0256 10.0325L56.8684 19.7552L51.7493 25.5002ZM33.666 30.6692C30.151 30.6692 27.2916 33.5291 27.2916 37.0436C27.2912 40.5585 30.151 43.4183 33.666 43.4183C37.1809 43.4183 40.0403 40.5585 40.0403 37.044C40.0403 33.5291 37.1805 30.6692 33.666 30.6692ZM33.666 41.8304C31.0264 41.8304 28.8787 39.6832 28.8787 37.0432C28.8787 34.4036 31.026 32.256 33.666 32.256C36.3056 32.256 38.4532 34.4032 38.4532 37.0432C38.4528 39.6832 36.3056 41.8304 33.666 41.8304Z"/>
</mask>
<path d="M58.8939 19.4284C58.8557 19.1929 58.714 18.9869 58.5069 18.8672L40.2599 8.33482C39.9339 8.14676 39.5207 8.21294 39.2706 8.4941L33.6556 14.7955L27.7355 8.36775C27.4839 8.09481 27.0767 8.03238 26.7552 8.2182L8.50823 18.7516C8.29923 18.8723 8.15715 19.0809 8.12088 19.3195C8.08462 19.558 8.15827 19.7996 8.32203 19.9768L14.6257 26.8207V47.5773C14.6257 47.8611 14.7771 48.1228 15.0227 48.2645L33.2697 58.7979C33.3927 58.8689 33.5292 58.9041 33.6668 58.9041C33.804 58.9041 33.9408 58.8689 34.0638 58.7979L52.3089 48.2645C52.5545 48.1228 52.706 47.8607 52.706 47.5773V26.8121L58.7023 20.0825C58.8608 19.9046 58.9311 19.6638 58.8933 19.4282L58.8939 19.4284ZM41.3102 42.9741L41.9551 44.4259L41.0473 45.3337L39.5963 44.6895C39.3466 44.5789 39.0579 44.6043 38.8321 44.7561C37.8065 45.4451 36.6736 45.9147 35.4649 46.1518C35.1968 46.2041 34.9751 46.3907 34.8771 46.6453L34.307 48.1255H33.0234L32.4533 46.6449C32.3549 46.3903 32.1332 46.2037 31.8655 46.1514C30.6579 45.914 29.5254 45.4444 28.4994 44.7557C28.2729 44.6039 27.9842 44.5788 27.7352 44.6891L26.2834 45.3341L25.3756 44.4263L26.0198 42.9753C26.1305 42.7255 26.1051 42.4369 25.9533 42.211C25.2642 41.1855 24.7947 40.0526 24.5576 38.8442C24.5052 38.5769 24.3187 38.3544 24.064 38.2565L22.5838 37.6863V36.4028L24.0644 35.8326C24.319 35.7343 24.5056 35.5125 24.558 35.2448C24.7954 34.0365 25.265 32.9043 25.9537 31.8788C26.1055 31.6522 26.1305 31.3636 26.0202 31.1145L25.376 29.6635L26.2838 28.7557L27.7348 29.4007C27.9846 29.5113 28.2732 29.4859 28.499 29.3341C29.5254 28.6451 30.6575 28.1755 31.8651 27.9388C32.1332 27.8865 32.3549 27.6999 32.4529 27.4453L33.023 25.9647H34.3066L34.8767 27.4453C34.9751 27.6999 35.1968 27.8865 35.4645 27.9388C36.6721 28.1762 37.8046 28.6458 38.8306 29.3341C39.0571 29.4859 39.3458 29.511 39.5948 29.4007L41.0466 28.7557L41.9544 29.6635L41.3102 31.1145C41.1995 31.3643 41.2249 31.6529 41.3767 31.8788C42.0658 32.9043 42.5353 34.0372 42.7724 35.2456C42.8248 35.5137 43.0113 35.7354 43.2659 35.8334L44.7462 36.4035V37.6871L43.2656 38.2572C43.0109 38.3556 42.8244 38.5773 42.772 38.845C42.5346 40.0526 42.065 41.1851 41.3767 42.211C41.2249 42.4361 41.1999 42.7248 41.3102 42.9741L41.3102 42.9741ZM43.4626 28.9252L41.7843 27.2468C41.5521 27.0147 41.2006 26.95 40.9011 27.0827L39.3424 27.7751C38.367 27.1754 37.3152 26.7395 36.2052 26.4744L35.5932 24.8843C35.4754 24.5777 35.1811 24.3758 34.8521 24.3758H32.4787C32.1504 24.3758 31.8562 24.5781 31.7377 24.8843L31.1256 26.4744C30.0151 26.7395 28.963 27.1758 27.9876 27.7751L26.4293 27.0827C26.1294 26.95 25.7784 27.0147 25.5462 27.2468L23.8678 28.9252C23.6356 29.1574 23.5702 29.5088 23.7037 29.8083L24.0436 30.5737L17.006 26.5107L33.665 16.8943L50.3241 26.5107L43.2865 30.5729L43.6264 29.8075C43.7595 29.5081 43.6941 29.1574 43.4619 28.9252L43.4626 28.9252ZM10.1607 19.6305L26.9988 9.91069L32.41 15.7859L15.5729 25.5057L10.1607 19.6305ZM16.2125 27.8854L23.8804 32.3119C23.5409 33.0114 23.277 33.7438 23.0953 34.5043L21.5052 35.1163C21.1986 35.2341 20.9967 35.5284 20.9967 35.8574V38.2308C20.9967 38.5591 21.199 38.8533 21.5052 38.9718L23.0949 39.5839C23.36 40.695 23.7967 41.7468 24.3956 42.7223L23.704 44.2798C23.5705 44.5797 23.6359 44.9308 23.8681 45.1629L25.5464 46.8413C25.7786 47.0735 26.1301 47.1389 26.4295 47.0054L27.9883 46.313C28.9637 46.9127 30.0155 47.3486 31.1255 47.6137L31.7375 49.2038C31.8553 49.5104 32.1496 49.7123 32.4786 49.7123H32.8715V56.7357L16.2125 47.1184L16.2125 27.8854ZM34.4594 56.7357V49.7122H34.8524C35.1807 49.7122 35.4749 49.51 35.5934 49.2038L36.2055 47.614C37.3166 47.349 38.3684 46.9123 39.3438 46.3133L40.9014 47.005C41.2013 47.1384 41.5523 47.073 41.7845 46.8408L43.4629 45.1625C43.6951 44.9303 43.7605 44.5788 43.627 44.2794L42.9346 42.721C43.5335 41.7456 43.9702 40.6938 44.2353 39.583L45.8254 38.971C46.132 38.8532 46.3339 38.559 46.3339 38.23V35.8565C46.3339 35.5283 46.1316 35.234 45.8254 35.1155L44.2357 34.5035C44.0536 33.7426 43.79 33.0105 43.4506 32.3103L51.1181 27.8839V47.1176L34.4594 56.7357ZM51.7493 25.5002L34.9064 15.7776L40.0256 10.0325L56.8684 19.7552L51.7493 25.5002ZM33.666 30.6692C30.151 30.6692 27.2916 33.5291 27.2916 37.0436C27.2912 40.5585 30.151 43.4183 33.666 43.4183C37.1809 43.4183 40.0403 40.5585 40.0403 37.044C40.0403 33.5291 37.1805 30.6692 33.666 30.6692ZM33.666 41.8304C31.0264 41.8304 28.8787 39.6832 28.8787 37.0432C28.8787 34.4036 31.026 32.256 33.666 32.256C36.3056 32.256 38.4532 34.4032 38.4532 37.0432C38.4528 39.6832 36.3056 41.8304 33.666 41.8304Z" fill="#404040"/>
<path d="M58.8939 19.4284C58.8557 19.1929 58.714 18.9869 58.5069 18.8672L40.2599 8.33482C39.9339 8.14676 39.5207 8.21294 39.2706 8.4941L33.6556 14.7955L27.7355 8.36775C27.4839 8.09481 27.0767 8.03238 26.7552 8.2182L8.50823 18.7516C8.29923 18.8723 8.15715 19.0809 8.12088 19.3195C8.08462 19.558 8.15827 19.7996 8.32203 19.9768L14.6257 26.8207V47.5773C14.6257 47.8611 14.7771 48.1228 15.0227 48.2645L33.2697 58.7979C33.3927 58.8689 33.5292 58.9041 33.6668 58.9041C33.804 58.9041 33.9408 58.8689 34.0638 58.7979L52.3089 48.2645C52.5545 48.1228 52.706 47.8607 52.706 47.5773V26.8121L58.7023 20.0825C58.8608 19.9046 58.9311 19.6638 58.8933 19.4282L58.8939 19.4284ZM41.3102 42.9741L41.9551 44.4259L41.0473 45.3337L39.5963 44.6895C39.3466 44.5789 39.0579 44.6043 38.8321 44.7561C37.8065 45.4451 36.6736 45.9147 35.4649 46.1518C35.1968 46.2041 34.9751 46.3907 34.8771 46.6453L34.307 48.1255H33.0234L32.4533 46.6449C32.3549 46.3903 32.1332 46.2037 31.8655 46.1514C30.6579 45.914 29.5254 45.4444 28.4994 44.7557C28.2729 44.6039 27.9842 44.5788 27.7352 44.6891L26.2834 45.3341L25.3756 44.4263L26.0198 42.9753C26.1305 42.7255 26.1051 42.4369 25.9533 42.211C25.2642 41.1855 24.7947 40.0526 24.5576 38.8442C24.5052 38.5769 24.3187 38.3544 24.064 38.2565L22.5838 37.6863V36.4028L24.0644 35.8326C24.319 35.7343 24.5056 35.5125 24.558 35.2448C24.7954 34.0365 25.265 32.9043 25.9537 31.8788C26.1055 31.6522 26.1305 31.3636 26.0202 31.1145L25.376 29.6635L26.2838 28.7557L27.7348 29.4007C27.9846 29.5113 28.2732 29.4859 28.499 29.3341C29.5254 28.6451 30.6575 28.1755 31.8651 27.9388C32.1332 27.8865 32.3549 27.6999 32.4529 27.4453L33.023 25.9647H34.3066L34.8767 27.4453C34.9751 27.6999 35.1968 27.8865 35.4645 27.9388C36.6721 28.1762 37.8046 28.6458 38.8306 29.3341C39.0571 29.4859 39.3458 29.511 39.5948 29.4007L41.0466 28.7557L41.9544 29.6635L41.3102 31.1145C41.1995 31.3643 41.2249 31.6529 41.3767 31.8788C42.0658 32.9043 42.5353 34.0372 42.7724 35.2456C42.8248 35.5137 43.0113 35.7354 43.2659 35.8334L44.7462 36.4035V37.6871L43.2656 38.2572C43.0109 38.3556 42.8244 38.5773 42.772 38.845C42.5346 40.0526 42.065 41.1851 41.3767 42.211C41.2249 42.4361 41.1999 42.7248 41.3102 42.9741L41.3102 42.9741ZM43.4626 28.9252L41.7843 27.2468C41.5521 27.0147 41.2006 26.95 40.9011 27.0827L39.3424 27.7751C38.367 27.1754 37.3152 26.7395 36.2052 26.4744L35.5932 24.8843C35.4754 24.5777 35.1811 24.3758 34.8521 24.3758H32.4787C32.1504 24.3758 31.8562 24.5781 31.7377 24.8843L31.1256 26.4744C30.0151 26.7395 28.963 27.1758 27.9876 27.7751L26.4293 27.0827C26.1294 26.95 25.7784 27.0147 25.5462 27.2468L23.8678 28.9252C23.6356 29.1574 23.5702 29.5088 23.7037 29.8083L24.0436 30.5737L17.006 26.5107L33.665 16.8943L50.3241 26.5107L43.2865 30.5729L43.6264 29.8075C43.7595 29.5081 43.6941 29.1574 43.4619 28.9252L43.4626 28.9252ZM10.1607 19.6305L26.9988 9.91069L32.41 15.7859L15.5729 25.5057L10.1607 19.6305ZM16.2125 27.8854L23.8804 32.3119C23.5409 33.0114 23.277 33.7438 23.0953 34.5043L21.5052 35.1163C21.1986 35.2341 20.9967 35.5284 20.9967 35.8574V38.2308C20.9967 38.5591 21.199 38.8533 21.5052 38.9718L23.0949 39.5839C23.36 40.695 23.7967 41.7468 24.3956 42.7223L23.704 44.2798C23.5705 44.5797 23.6359 44.9308 23.8681 45.1629L25.5464 46.8413C25.7786 47.0735 26.1301 47.1389 26.4295 47.0054L27.9883 46.313C28.9637 46.9127 30.0155 47.3486 31.1255 47.6137L31.7375 49.2038C31.8553 49.5104 32.1496 49.7123 32.4786 49.7123H32.8715V56.7357L16.2125 47.1184L16.2125 27.8854ZM34.4594 56.7357V49.7122H34.8524C35.1807 49.7122 35.4749 49.51 35.5934 49.2038L36.2055 47.614C37.3166 47.349 38.3684 46.9123 39.3438 46.3133L40.9014 47.005C41.2013 47.1384 41.5523 47.073 41.7845 46.8408L43.4629 45.1625C43.6951 44.9303 43.7605 44.5788 43.627 44.2794L42.9346 42.721C43.5335 41.7456 43.9702 40.6938 44.2353 39.583L45.8254 38.971C46.132 38.8532 46.3339 38.559 46.3339 38.23V35.8565C46.3339 35.5283 46.1316 35.234 45.8254 35.1155L44.2357 34.5035C44.0536 33.7426 43.79 33.0105 43.4506 32.3103L51.1181 27.8839V47.1176L34.4594 56.7357ZM51.7493 25.5002L34.9064 15.7776L40.0256 10.0325L56.8684 19.7552L51.7493 25.5002ZM33.666 30.6692C30.151 30.6692 27.2916 33.5291 27.2916 37.0436C27.2912 40.5585 30.151 43.4183 33.666 43.4183C37.1809 43.4183 40.0403 40.5585 40.0403 37.044C40.0403 33.5291 37.1805 30.6692 33.666 30.6692ZM33.666 41.8304C31.0264 41.8304 28.8787 39.6832 28.8787 37.0432C28.8787 34.4036 31.026 32.256 33.666 32.256C36.3056 32.256 38.4532 34.4032 38.4532 37.0432C38.4528 39.6832 36.3056 41.8304 33.666 41.8304Z" stroke="#404040" stroke-width="0.5" mask="url(#path-1-outside-1_326_882)"/>
</svg>
