<svg width="67" height="67" viewBox="0 0 67 67" fill="none" xmlns="http://www.w3.org/2000/svg">
<path d="M24.1698 35.4507C22.2402 35.4507 20.686 37.0049 20.686 38.9345C20.686 40.8641 22.2402 42.4183 24.1698 42.4183C26.0994 42.4183 27.6536 40.8641 27.6536 38.9345C27.654 37.0049 26.0994 35.4507 24.1698 35.4507ZM24.1698 40.3284C23.4194 40.3284 22.7763 39.7388 22.7763 38.9349C22.7763 38.1845 23.3659 37.5414 24.1698 37.5414C24.9202 37.5414 25.5633 38.131 25.5633 38.9349C25.5637 39.6849 24.9202 40.3284 24.1698 40.3284Z" fill="#404040"/>
<path d="M51.0234 27.5179H29.7978C29.2082 27.5179 28.7259 28.0002 28.7259 28.5898V30.3586C27.3324 29.6082 25.7778 29.1794 24.1163 29.1794C18.7563 29.1259 14.3611 33.5209 14.3611 38.9346C14.3611 44.3481 18.7565 48.6898 24.1699 48.6898C25.8314 48.6898 27.3861 48.2609 28.7795 47.5106V49.2794C28.7795 49.869 29.2618 50.3513 29.8514 50.3513H51.077C51.6666 50.3513 52.1489 49.869 52.1489 49.2794V28.5362C52.0955 28 51.6127 27.5179 51.0234 27.5179ZM24.1698 46.5995C19.9356 46.5995 16.5052 43.1691 16.5052 38.9349C16.5052 34.7007 19.9356 31.2703 24.1698 31.2703C25.8852 31.2703 27.4929 31.8599 28.7794 32.8245V45.0989C27.4929 46.01 25.8852 46.5995 24.1698 46.5995ZM49.9514 48.261H30.8698V29.6082H49.9514V48.261Z" fill="#404040"/>
<path d="M35.6938 42.3116C35.908 42.5258 36.1761 42.6331 36.4442 42.6331C36.7123 42.6331 36.9803 42.5258 37.1946 42.3116C37.6234 41.8827 37.6234 41.2397 37.1946 40.8108L35.1577 38.7739L37.1946 36.737C37.6234 36.3081 37.6234 35.6651 37.1946 35.2362C36.7657 34.8073 36.1227 34.8073 35.6938 35.2362L32.9065 38.0235C32.6922 38.2377 32.5849 38.5058 32.5849 38.7739C32.5849 39.0419 32.6922 39.31 32.9065 39.5242L35.6938 42.3116Z" fill="#404040"/>
<path d="M43.6266 42.3115C43.8408 42.5258 44.1089 42.6331 44.377 42.6331C44.6451 42.6331 44.9131 42.5258 45.1274 42.3115L47.9147 39.5242C48.1289 39.31 48.2362 39.0419 48.2362 38.7739C48.2362 38.5058 48.1289 38.2377 47.9147 38.0235L45.1274 35.2362C44.6985 34.8073 44.0555 34.8073 43.6266 35.2362C43.1977 35.665 43.1977 36.3081 43.6266 36.737L45.6635 38.7739L43.6266 40.8108C43.2512 41.2396 43.2512 41.8827 43.6266 42.3116L43.6266 42.3115Z" fill="#404040"/>
<path d="M39.2314 43.9195C39.3387 43.9195 39.3922 43.973 39.4995 43.973C39.9818 43.973 40.4106 43.6514 40.518 43.1691L42.3942 35.2899C42.5015 34.7003 42.1799 34.1641 41.5903 34.0034C41.0007 33.8426 40.4645 34.2176 40.3038 34.8073L38.4276 42.6865C38.3203 43.1691 38.6957 43.7587 39.2315 43.9195L39.2314 43.9195Z" fill="#404040"/>
<path d="M15.165 17.4947C15.165 18.235 14.5649 18.8347 13.825 18.8347C13.0847 18.8347 12.485 18.235 12.485 17.4947C12.485 16.7547 13.0847 16.1547 13.825 16.1547C14.5649 16.1547 15.165 16.7547 15.165 17.4947Z" fill="#404040"/>
<path d="M19.0242 17.4947C19.0242 18.235 18.4241 18.8347 17.6842 18.8347C16.9439 18.8347 16.3442 18.235 16.3442 17.4947C16.3442 16.7547 16.9439 16.1547 17.6842 16.1547C18.4241 16.1547 19.0242 16.7547 19.0242 17.4947Z" fill="#404040"/>
<path d="M22.8298 17.4947C22.8298 18.235 22.2301 18.8347 21.4898 18.8347C20.7499 18.8347 20.1498 18.235 20.1498 17.4947C20.1498 16.7547 20.7499 16.1547 21.4898 16.1547C22.2301 16.1547 22.8298 16.7547 22.8298 17.4947Z" fill="#404040"/>
<path d="M56.6514 11.6522H9.80501C8.67922 11.6522 7.76811 12.5634 7.76811 13.6891V54.5859C7.76811 55.7117 8.67926 56.6228 9.80501 56.6228H56.6514C57.7772 56.6228 58.6883 55.7117 58.6883 54.5859L58.6879 13.6891C58.6879 12.5633 57.7768 11.6522 56.651 11.6522H56.6514ZM56.5979 13.6891V21.3003H9.80514V13.7426L56.5979 13.6891ZM9.85874 54.5323L9.80528 23.3907H56.5981V54.4787L9.85874 54.5323Z" fill="#404040"/>
</svg>
