<svg width="67" height="67" viewBox="0 0 67 67" fill="none" xmlns="http://www.w3.org/2000/svg">
<path fill-rule="evenodd" clip-rule="evenodd" d="M17.6542 0H49.3458C59.0618 0 67 7.94074 67 17.6461V49.3478C67 59.0593 59.0618 66.9939 49.3458 66.9939H17.6542C7.93824 67 0 59.0593 0 49.3478V17.6461C0 7.94074 7.93824 0 17.6542 0Z" fill="#20B07F"/>
<path fill-rule="evenodd" clip-rule="evenodd" d="M33.8678 49.6296C30.4596 49.6296 27.2843 48.6248 24.6423 46.8663L18.1814 48.9189L20.2839 42.7366C18.2856 39.9917 17.0841 36.6218 17.0841 32.9761C17.0841 32.437 17.1209 31.8978 17.1699 31.3586C17.9852 22.9338 25.1633 16.3349 33.8678 16.3349C42.6949 16.3349 49.9405 23.1115 50.6025 31.6711C50.6393 32.1061 50.6515 32.5411 50.6515 32.9761C50.6515 42.1607 43.1301 49.6296 33.8678 49.6296ZM43.0259 36.9649C42.5233 36.7198 40.1265 35.5557 39.6729 35.4025C39.2192 35.2309 38.8882 35.139 38.5756 35.6292C38.2446 36.1132 37.3067 37.21 37.0125 37.5408C36.7366 37.8717 36.4546 37.9085 35.952 37.6634C35.4677 37.4183 33.9046 36.8975 32.0227 35.2493C30.5638 33.9626 29.5891 32.3818 29.2949 31.8978C29.0191 31.4137 29.2765 31.1503 29.5217 30.9052C29.7301 30.6785 30.006 30.3292 30.2512 30.0535C30.3186 29.9677 30.3738 29.8942 30.4228 29.8084C30.5454 29.6369 30.6128 29.4592 30.7354 29.2325C30.8887 28.92 30.8213 28.6259 30.6987 28.3808C30.5761 28.1357 29.5891 25.7584 29.1846 24.7842C28.7677 23.81 28.3693 23.9693 28.075 23.9693C27.7992 23.9693 27.4682 23.9325 27.1372 23.9325C26.8245 23.9325 26.2851 24.0551 25.8315 24.5391C25.3963 25.0231 24.1274 26.1873 24.1274 28.5891C24.1274 29.1467 24.2132 29.6981 24.3726 30.2373C24.8752 31.959 25.9357 33.3621 26.1257 33.6072C26.3709 33.9197 29.5156 38.993 34.4808 40.9353C39.4522 42.8837 39.4522 42.2403 40.3533 42.1484C41.2544 42.0626 43.2527 40.9659 43.6573 39.8385C44.0741 38.7111 44.0741 37.7369 43.9515 37.5286C43.8228 37.3264 43.5102 37.21 43.0259 36.9649ZM53.833 32.4676C53.5571 21.7696 44.73 13.1672 33.8678 13.1672C23.1466 13.1672 14.3869 21.5736 13.9211 32.1C13.9211 32.3941 13.9027 32.6882 13.9027 32.97C13.9027 36.7198 14.9448 40.2123 16.7715 43.2023L13.1732 53.8328L24.2255 50.322C27.0943 51.8844 30.3799 52.7912 33.8678 52.7912C44.9017 52.7912 53.833 43.913 53.833 32.97C53.833 32.8107 53.833 32.6391 53.833 32.4676Z" fill="#FEFEFE"/>
</svg>
