<svg width="207" height="41" viewBox="0 0 207 41" fill="none" xmlns="http://www.w3.org/2000/svg">
<g clip-path="url(#clip0_440_2453)">
<path d="M50.5655 20.2779H61.4479V25.1818H50.5655V33.3523H44.8455V10.5413H62.7988V15.4781H50.5655V20.2779Z" fill="#0A103A"/>
<path d="M71.8432 11.2215C71.8432 12.9576 70.4923 14.2521 68.6191 14.2521C66.7485 14.2521 65.4302 12.9576 65.4302 11.2215C65.4302 9.55387 66.7485 8.12231 68.6191 8.12231C70.4923 8.12485 71.8432 9.55387 71.8432 11.2215ZM65.8471 33.3523V16.2599H71.3937V33.3498H65.8471V33.3523Z" fill="#0A103A"/>
<path d="M93.3319 22.8669V33.3524H87.8204V24.0244C87.8204 22.0166 86.6076 20.6536 84.8399 20.6536C82.6554 20.6536 81.2367 22.1182 81.2367 25.4204V33.3524H75.6925V16.2599H81.2367V17.8946C82.5549 16.5315 84.3904 15.7498 86.5749 15.7498C90.6276 15.7498 93.3319 18.5748 93.3319 22.8669Z" fill="#0A103A"/>
<path d="M115.406 33.3523H109.861V31.9892C108.511 33.1822 106.708 33.8625 104.455 33.8625C99.8453 33.8625 95.9634 30.2201 95.9634 24.8061C95.9634 19.4276 99.8453 15.7497 104.455 15.7497C106.708 15.7497 108.511 16.4299 109.861 17.6229V7.13745H115.406V33.3523V33.3523ZM109.861 24.8061C109.861 22.1841 107.85 20.3794 105.598 20.3794C103.172 20.3794 101.405 22.1841 101.405 24.8061C101.405 27.461 103.172 29.2327 105.598 29.2327C107.85 29.2327 109.861 27.461 109.861 24.8061Z" fill="#0A103A"/>
<path d="M129.128 33.3522H125.281L117.899 16.4324H121.816L127.222 29.1311L132.628 16.4324H136.545L129.128 33.3522Z" fill="#0A103A"/>
<path d="M155.224 25.7605H141.291C141.452 27.2809 142.029 28.4967 143.024 29.4028C144.018 30.3115 145.173 30.7633 146.489 30.7633C148.869 30.7633 150.556 29.7886 151.548 27.8367L154.772 28.517C154.079 30.2658 153.01 31.5857 151.566 32.4842C150.122 33.3802 148.43 33.8295 146.489 33.8295C144.086 33.8295 142.024 33.002 140.302 31.3446C138.579 29.6871 137.72 27.555 137.72 24.9431C137.72 22.311 138.582 20.1611 140.302 18.491C142.024 16.8234 144.131 15.9883 146.627 15.9883C148.959 15.9883 150.953 16.7878 152.605 18.3894C154.258 19.9885 155.129 22.0369 155.222 24.5345V25.7605H155.224ZM143.302 20.2094C142.285 20.9353 141.65 21.9455 141.396 23.24H151.518C151.242 21.8998 150.662 20.8794 149.786 20.1764C148.907 19.4733 147.857 19.1205 146.632 19.1205C145.429 19.1205 144.319 19.4834 143.302 20.2094Z" fill="#0A103A"/>
<path d="M170.576 16.3968L170.333 19.8006C170.147 19.7778 169.813 19.7676 169.328 19.7676C167.201 19.7676 165.584 20.4428 164.477 21.7931C163.367 23.1434 162.812 25.0116 162.812 27.3924V33.3497H159.209V16.4654H162.812V20.0747C164.384 17.534 166.566 16.2623 169.363 16.2623C169.873 16.2598 170.277 16.3055 170.576 16.3968Z" fill="#0A103A"/>
<path d="M175.671 28.0754C175.786 29.0297 176.231 29.743 177.004 30.2202C177.778 30.6974 178.767 30.936 179.967 30.936C181.007 30.936 181.833 30.7329 182.445 30.3242C183.058 29.9156 183.364 29.3699 183.364 28.6896C183.364 27.6921 182.591 27.022 181.042 26.6819L177.298 25.9331C174.179 25.2529 172.62 23.7198 172.62 21.3364C172.62 19.7474 173.238 18.4606 174.476 17.4732C175.711 16.4858 177.358 15.9934 179.415 15.9934C181.356 15.9934 182.968 16.4427 184.251 17.3387C185.534 18.2347 186.335 19.4099 186.659 20.8617L183.229 21.5775C183.091 20.7374 182.674 20.0673 181.981 19.5698C181.288 19.0697 180.399 18.821 179.312 18.821C178.317 18.821 177.562 19.0317 177.042 19.4505C176.522 19.8693 176.261 20.3972 176.261 21.0343C176.261 21.9887 176.954 22.6233 178.34 22.9405L182.43 23.8264C183.839 24.1208 184.936 24.6615 185.722 25.4432C186.508 26.225 186.9 27.2073 186.9 28.3876C186.9 30.1136 186.242 31.4512 184.924 32.4056C183.605 33.36 181.85 33.8346 179.656 33.8346C177.622 33.8346 175.902 33.4082 174.491 32.5579C173.082 31.7076 172.274 30.4638 172.065 28.8292L175.671 28.0754Z" fill="#0A103A"/>
<path d="M207 25.7605H193.067C193.227 27.2809 193.805 28.4967 194.799 29.4028C195.794 30.3115 196.949 30.7633 198.264 30.7633C200.645 30.7633 202.332 29.7886 203.324 27.8367L206.548 28.517C205.855 30.2658 204.785 31.5857 203.342 32.4842C201.898 33.3802 200.205 33.8295 198.264 33.8295C195.861 33.8295 193.8 33.002 192.077 31.3446C190.355 29.6871 189.496 27.555 189.496 24.9431C189.496 22.311 190.357 20.1611 192.077 18.491C193.8 16.8234 195.907 15.9883 198.402 15.9883C200.735 15.9883 202.729 16.7878 204.381 18.3894C206.033 19.9885 206.905 22.0369 206.997 24.5345V25.7605H207ZM195.078 20.2094C194.061 20.9353 193.426 21.9455 193.172 23.24H203.294C203.018 21.8998 202.438 20.8794 201.561 20.1764C200.682 19.4733 199.633 19.1205 198.408 19.1205C197.205 19.1205 196.095 19.4834 195.078 20.2094Z" fill="#0A103A"/>
<path d="M0.650335 33.4054L13.2754 40.7739C13.8931 41.1343 14.6639 40.685 14.6639 39.9642V33.7227C14.6639 33.2582 14.4204 32.8267 14.0211 32.5932L4.30125 26.8644C3.90452 26.6309 3.65845 26.1994 3.65845 25.7349L3.66598 23.6078C3.66849 23.151 4.15562 22.8286 4.54984 23.0545C4.55235 23.057 13.5918 28.4406 13.5918 28.4406C14.0663 28.7224 14.6639 28.3772 14.6639 27.8213V27.6969V23.4149C14.6639 22.9504 14.4204 22.5189 14.0211 22.2854L1.51159 14.9119C0.841167 14.5184 0 15.0058 0 15.7901L0.00251095 32.2708C0.00251095 32.7404 0.248584 33.1719 0.650335 33.4054Z" fill="#0A103A"/>
<path d="M35.2261 33.4741L22.5382 40.8781C21.9507 41.2207 21.2125 40.7918 21.2125 40.1039V33.7888C21.2125 33.3243 21.456 32.8928 21.8553 32.6593L31.5751 26.9305C31.9719 26.697 32.2179 26.2655 32.2179 25.801L32.2104 23.674C32.2079 23.2171 31.7208 22.8947 31.3266 23.1206C31.324 23.1232 22.2846 28.5068 22.2846 28.5068C21.8101 28.7885 21.2125 28.4433 21.2125 27.8874V27.7631V23.4836C21.2125 23.0191 21.456 22.5876 21.8553 22.3541L34.4678 14.9222C35.093 14.5541 35.8764 15.0085 35.8764 15.742L35.8739 32.3446C35.8739 32.8091 35.6278 33.2406 35.2261 33.4741Z" fill="#0A103A"/>
<path d="M18.6287 0.202888C18.1617 -0.0687021 17.5842 -0.0687021 17.1171 0.205427L1.33082 9.45727C0.738235 9.80501 0.740746 10.668 1.33333 11.0132L4.70804 12.9829C5.17508 13.2545 5.75009 13.2545 6.21712 12.9829L15.598 7.50791C15.9445 7.30485 16.3689 7.30485 16.7154 7.50537L18.7141 8.6628C19.033 8.84809 19.033 9.31005 18.7166 9.49534L10.1668 14.5363C9.54413 14.8992 9.54413 15.8054 10.1668 16.1683L17.2377 20.2955C17.6896 20.5595 18.2496 20.5595 18.699 20.2904L34.5984 10.899C35.1206 10.5893 35.1181 9.82785 34.5959 9.52072L18.6287 0.202888Z" fill="#0A103A"/>
</g>
<defs>
<clipPath id="clip0_440_2453">
<rect width="207" height="41" fill="white"/>
</clipPath>
</defs>
</svg>
