<svg width="217" height="43" viewBox="0 0 217 43" fill="none" xmlns="http://www.w3.org/2000/svg">
<g clip-path="url(#clip0_575_2485)">
<path d="M52.1906 21.0046H63.6556V26.091H52.1906V34.5745H46.1644V10.895H65.0762V16.021H52.1906V21.0046Z" fill="#0A103A"/>
<path d="M74.5995 11.596C74.5995 13.4039 73.1842 14.7585 71.2108 14.7585C69.2374 14.7585 67.8538 13.4039 67.8538 11.596C67.8564 11.1635 67.946 10.7359 68.1172 10.3385C68.2885 9.94111 68.5379 9.58194 68.8509 9.28221C69.1638 8.98248 69.5339 8.74827 69.9392 8.59344C70.3446 8.4386 70.7769 8.36627 71.2108 8.38071C73.1842 8.38598 74.5995 9.86974 74.5995 11.596ZM68.2824 34.5744V16.8326H74.126V34.5797L68.2824 34.5744Z" fill="#0A103A"/>
<path d="M97.2439 23.6928V34.5798H91.44V24.8945C91.44 22.8073 90.1622 21.3947 88.2999 21.3947C85.9984 21.3947 84.5011 22.9127 84.5011 26.344V34.5798H78.6602V16.8327H84.5011V18.5299C85.89 17.1173 87.8237 16.303 90.1252 16.303C94.3975 16.303 97.2439 19.2389 97.2439 23.6928Z" fill="#0A103A"/>
<path d="M120.502 34.5798H114.661V33.1645C113.235 34.4032 111.338 35.1095 108.963 35.1095C104.109 35.1095 100.019 31.3276 100.019 25.7062C100.019 20.0848 104.109 16.3029 108.963 16.3029C111.344 16.3029 113.235 17.0092 114.661 18.2479V7.36084H120.502V34.5798ZM114.661 25.7062C114.677 25.1082 114.572 24.5131 114.353 23.9561C114.134 23.399 113.805 22.8913 113.386 22.4629C112.967 22.0346 112.466 21.6941 111.912 21.4618C111.359 21.2294 110.764 21.1098 110.164 21.11C107.608 21.11 105.746 22.9838 105.746 25.7062C105.746 28.4286 107.598 30.3024 110.164 30.3024C110.764 30.3026 111.359 30.183 111.912 29.9506C112.466 29.7183 112.967 29.3779 113.386 28.9495C113.805 28.5211 114.134 28.0134 114.353 27.4564C114.572 26.8993 114.677 26.3042 114.661 25.7062Z" fill="#0A103A"/>
<path d="M134.959 34.5798H130.906L123.129 17.0093H127.256L132.951 30.1865L138.647 17.0093H142.773L134.959 34.5798Z" fill="#0A103A"/>
<path d="M162.452 26.697H147.773C147.95 28.2783 148.559 29.5389 149.601 30.4789C150.592 31.3976 151.898 31.9032 153.252 31.8915C155.76 31.8915 157.536 30.8786 158.582 28.8528L161.979 29.5591C161.338 31.2649 160.151 32.7126 158.601 33.6783C156.984 34.6337 155.131 35.1169 153.252 35.0725C152.048 35.0924 150.852 34.8746 149.734 34.4318C148.615 33.9889 147.595 33.3298 146.734 32.4924C144.922 30.7741 144.016 28.5594 144.014 25.8484C144.012 23.1374 144.919 20.9043 146.734 19.1491C148.554 17.4185 150.775 16.5523 153.397 16.5506C154.561 16.5292 155.717 16.7386 156.798 17.1666C157.879 17.5946 158.864 18.2327 159.696 19.0437C161.437 20.704 162.355 22.8308 162.452 25.4241V26.697ZM149.892 20.9333C149.364 21.2994 148.915 21.7659 148.569 22.3059C148.223 22.846 147.987 23.449 147.876 24.08H158.537C158.246 22.6885 157.638 21.6282 156.712 20.8991C155.765 20.1612 154.591 19.7737 153.389 19.8027C152.133 19.8024 150.909 20.1982 149.892 20.9333V20.9333Z" fill="#0A103A"/>
<path d="M178.626 16.975L178.362 20.5091C178.01 20.4799 177.657 20.4685 177.304 20.4749C175.066 20.4749 173.362 21.1776 172.193 22.5832C171.023 23.9888 170.439 25.9267 170.439 28.397V34.585H166.659V17.0461H170.455V20.7937C172.111 18.1583 174.411 16.8406 177.356 16.8406C177.784 16.826 178.211 16.8712 178.626 16.975Z" fill="#0A103A"/>
<path d="M183.994 29.1007C184.034 29.5563 184.182 29.996 184.426 30.3832C184.67 30.7705 185.004 31.0942 185.398 31.3277C186.215 31.8196 187.256 32.0665 188.523 32.0682C189.618 32.0682 190.488 31.8565 191.134 31.4331C191.43 31.2593 191.675 31.0111 191.844 30.7132C192.014 30.4153 192.102 30.0782 192.099 29.7358C192.099 28.701 191.283 28.0061 189.652 27.6512L185.705 26.8817C182.42 26.1789 180.776 24.5879 180.774 22.1089C180.756 21.3336 180.924 20.5652 181.264 19.8676C181.604 19.17 182.107 18.5632 182.729 18.0977C184.031 17.0716 185.765 16.5586 187.933 16.5586C189.977 16.5586 191.674 17.0242 193.025 17.9554C194.318 18.7978 195.231 20.109 195.57 21.6108L191.954 22.3487C191.888 21.9291 191.737 21.5272 191.51 21.1682C191.282 20.8091 190.983 20.5005 190.631 20.2614C189.8 19.7148 188.817 19.4428 187.822 19.4839C186.777 19.4839 185.97 19.7027 185.441 20.1402C185.183 20.3298 184.975 20.5774 184.832 20.8628C184.69 21.1483 184.617 21.4633 184.621 21.7821C184.621 22.773 185.351 23.4327 186.811 23.7613L191.12 24.6811C192.603 24.9868 193.76 25.5464 194.588 26.3598C194.996 26.7567 195.316 27.2331 195.529 27.7592C195.743 28.2853 195.845 28.8497 195.829 29.417C195.829 31.2091 195.136 32.5997 193.75 33.5889C192.364 34.578 190.512 35.0726 188.195 35.0726C186.054 35.0726 184.241 34.6334 182.756 33.7549C182.05 33.3606 181.449 32.8035 181.004 32.1304C180.559 31.4572 180.283 30.6876 180.198 29.8861L183.994 29.1007Z" fill="#0A103A"/>
<path d="M217 26.697H202.321C202.497 28.2783 203.107 29.5389 204.149 30.4789C205.14 31.3976 206.446 31.9032 207.799 31.8915C210.307 31.8915 212.084 30.8786 213.13 28.8528L216.527 29.5591C215.886 31.2649 214.698 32.7126 213.148 33.6783C211.532 34.6337 209.678 35.1169 207.799 35.0725C206.596 35.0924 205.4 34.8746 204.281 34.4318C203.163 33.9889 202.143 33.3298 201.281 32.4924C199.47 30.7741 198.564 28.5594 198.562 25.8484C198.56 23.1374 199.466 20.9043 201.281 19.1491C203.096 17.4185 205.317 16.5523 207.945 16.5506C209.108 16.5292 210.264 16.7386 211.346 17.1666C212.427 17.5946 213.412 18.2327 214.244 19.0437C215.984 20.704 216.903 22.8308 217 25.4241V26.697ZM204.44 20.9333C203.913 21.3001 203.465 21.7669 203.121 22.307C202.776 22.847 202.542 23.4496 202.432 24.08H213.093C212.802 22.6885 212.193 21.6282 211.268 20.8991C210.321 20.1612 209.146 19.7737 207.945 19.8027C206.686 19.8008 205.459 20.1966 204.44 20.9333V20.9333Z" fill="#0A103A"/>
<path d="M0.685152 34.7299L14.7665 42.8181C14.9146 42.9039 15.0828 42.9492 15.2542 42.9495C15.4255 42.9498 15.5939 42.9051 15.7423 42.8198C15.8907 42.7345 16.0139 42.6117 16.0994 42.4638C16.185 42.3159 16.2298 42.1481 16.2294 41.9774V35.4309C16.2291 35.1939 16.1664 34.9611 16.0476 34.7558C15.9288 34.5504 15.7579 34.3798 15.5522 34.2608L3.60829 27.6722C3.40213 27.553 3.23105 27.3819 3.11219 27.176C2.99333 26.9702 2.93087 26.7368 2.93107 26.4994V24.2909C2.92969 24.1803 2.9572 24.0713 3.01089 23.9745C3.06458 23.8777 3.14261 23.7964 3.23732 23.7388C3.33203 23.6811 3.44017 23.6489 3.55112 23.6455C3.66208 23.642 3.77203 23.6673 3.87018 23.719L15.0998 29.9545C15.2136 30.0214 15.3431 30.0572 15.4752 30.0582C15.6074 30.0592 15.7374 30.0253 15.8522 29.96C15.9669 29.8946 16.0622 29.8002 16.1285 29.6863C16.1947 29.5724 16.2295 29.4431 16.2294 29.3114V24.7284C16.2296 24.4912 16.1674 24.2581 16.049 24.0524C15.9307 23.8466 15.7603 23.6753 15.5548 23.5556L1.58722 15.5306C1.42644 15.4382 1.24407 15.3895 1.05842 15.3894C0.872768 15.3894 0.690371 15.438 0.529544 15.5304C0.368717 15.6228 0.235121 15.7557 0.142172 15.9158C0.049222 16.0759 0.000190312 16.2575 0 16.4425L0 33.5545C0.000133231 33.7932 0.0635696 34.0276 0.183886 34.234C0.304203 34.4404 0.477127 34.6115 0.685152 34.7299V34.7299Z" fill="#0A103A"/>
<path d="M34.9507 34.788L20.8667 42.8683C20.7186 42.9541 20.5504 42.9994 20.379 42.9997C20.2077 43 20.0393 42.9553 19.8909 42.87C19.7425 42.7847 19.6193 42.6619 19.5337 42.514C19.4482 42.3661 19.4034 42.1983 19.4038 42.0276V35.4811C19.4041 35.2438 19.4668 35.0106 19.5856 34.8049C19.7044 34.5991 19.8752 34.4279 20.081 34.3083L32.0249 27.7197C32.2307 27.6001 32.4015 27.4289 32.5203 27.2232C32.6391 27.0174 32.7018 26.7843 32.7021 26.5469V24.3384C32.7033 24.229 32.6761 24.1212 32.6231 24.0254C32.5702 23.9295 32.4933 23.8489 32.3999 23.7914C32.3065 23.7339 32.1997 23.7014 32.09 23.697C31.9803 23.6926 31.8713 23.7166 31.7736 23.7665L20.536 29.9967C20.4221 30.0635 20.2924 30.0992 20.1602 30.1001C20.028 30.101 19.8979 30.0671 19.783 30.0018C19.6681 29.9366 19.5726 29.8423 19.506 29.7285C19.4394 29.6147 19.4042 29.4854 19.4038 29.3537V24.7733C19.4044 24.536 19.4672 24.3029 19.586 24.0972C19.7048 23.8915 19.8754 23.7203 20.081 23.6005L34.0407 15.5756C34.2014 15.4831 34.3838 15.4344 34.5695 15.4343C34.7551 15.4343 34.9375 15.4829 35.0983 15.5753C35.2592 15.6677 35.3928 15.8006 35.4857 15.9607C35.5787 16.1208 35.6277 16.3025 35.6279 16.4874V33.5994C35.6304 33.8394 35.569 34.0758 35.45 34.2846C35.3311 34.4934 35.1588 34.667 34.9507 34.788V34.788Z" fill="#0A103A"/>
<path d="M18.5441 0.21084C18.3034 0.070223 18.0294 -0.00390625 17.7504 -0.00390625C17.4714 -0.00390625 17.1975 0.070223 16.9568 0.21084L0.505246 9.71954C0.36468 9.8009 0.248017 9.9176 0.166925 10.058C0.0858323 10.1983 0.0431519 10.3574 0.0431519 10.5194C0.0431519 10.6814 0.0858323 10.8405 0.166925 10.9808C0.248017 11.1212 0.36468 11.2379 0.505246 11.3193L4.02359 13.3433C4.26299 13.4792 4.53375 13.5506 4.80927 13.5506C5.08478 13.5506 5.35555 13.4792 5.59495 13.3433L15.3828 7.7166C15.5603 7.61485 15.7614 7.5613 15.9661 7.5613C16.1709 7.5613 16.372 7.61485 16.5494 7.7166L18.6313 8.90519C18.7066 8.94879 18.769 9.01128 18.8124 9.08643C18.8558 9.16158 18.8786 9.24676 18.8786 9.33345C18.8786 9.42014 18.8558 9.50532 18.8124 9.58047C18.769 9.65562 18.7066 9.71812 18.6313 9.76171L9.71908 14.9377C9.57066 15.0224 9.44732 15.1446 9.36154 15.292C9.27576 15.4394 9.23058 15.6067 9.23058 15.7771C9.23058 15.9475 9.27576 16.1149 9.36154 16.2623C9.44732 16.4097 9.57066 16.5319 9.71908 16.6165L17.0917 20.857C17.3231 20.991 17.586 21.0616 17.8536 21.0616C18.1212 21.0616 18.3841 20.991 18.6155 20.857L35.1967 11.2007C35.3207 11.1284 35.4236 11.0251 35.4951 10.901C35.5666 10.7768 35.6042 10.6362 35.6042 10.493C35.6042 10.3499 35.5666 10.2093 35.4951 10.0851C35.4236 9.96098 35.3207 9.85766 35.1967 9.78543L18.5441 0.21084Z" fill="#0A103A"/>
</g>
<defs>
<clipPath id="clip0_575_2485">
<rect width="217" height="43" fill="white"/>
</clipPath>
</defs>
</svg>
