<svg width="176" height="75" viewBox="0 0 176 75" fill="none" xmlns="http://www.w3.org/2000/svg">
<path d="M57.911 57.5532L56.8312 63.4185L41.6633 64.0416L32.6143 63.005L33.3849 32.224L55.4942 31.8606L57.911 57.5532ZM48.1433 54.9059L47.4753 41.0463L41.7683 40.7354L41.511 55.1656L48.1433 54.9059Z" fill="#0A103A"/>
<path d="M70.8132 31.8071L77.1893 44.1619L83.4616 31.8071L91.8427 32.1193L93.0252 63.7307L83.4108 64.4039L82.7429 47.5348L80.1714 53.3477L74.619 53.7635L71.7396 47.6897L71.6369 64.2478L61.9707 64.1966L62.5879 32.8448L70.8132 31.8071Z" fill="#0A103A"/>
<path d="M124.127 54.0244V54.4379L118.163 64.3003L98.2651 64.2491L97.6998 32.7925L97.957 32.4816L110.4 31.7024L117.701 31.806L122.226 39.5406V39.8516L118.369 47.3788L124.127 54.0244ZM111.531 39.3345L106.954 39.2832V44.8364L111.633 44.6815L111.531 39.3345ZM112.61 51.2723H107.418V57.501L112.713 57.19L112.61 51.2723Z" fill="#0A103A"/>
<path d="M151.477 64.1465L142.223 64.5611L141.708 58.124L134.356 58.7471L134.099 64.3014L125.256 64.1465L126.594 45.5642L133.02 32.1205L142.069 31.7571L149.524 44.0595L151.477 64.1465ZM140.989 50.5979L140.629 46.3946L137.852 40.4245L135.179 46.291L134.716 50.9625L140.989 50.5979Z" fill="#0A103A"/>
<path d="M75.0413 0L75.2351 5.63583L68.0711 5.57061L68.168 8.76413L73.8807 8.47063L74.0745 13.8794L68.2337 14.0424L68.5556 20.6566L62.1333 21.1131L62.0041 0.521771L75.0413 0Z" fill="#0A103A"/>
<path d="M92.8211 0.553223L93.6921 18.1141L91.2071 20.3293L78.6856 20.7532L77.4916 19.6456L77.5885 1.07499L83.2678 0.977162L83.5262 14.563L87.4313 14.0424L87.2063 0.619609L92.8211 0.553223Z" fill="#0A103A"/>
<path d="M102.404 14.8892L108.342 14.7262L108.18 20.8512L95.982 20.5577L96.1112 18.0164C96.1112 18.0164 96.2727 1.43265 96.2727 0.651162L102.855 0.357666L102.404 14.8892Z" fill="#0A103A"/>
<path d="M116.537 14.8892L122.475 14.7262L122.314 20.8512L110.115 20.5577L110.244 18.0164C110.244 18.0164 110.406 1.43265 110.406 0.651162L116.988 0.357666L116.537 14.8892Z" fill="#0A103A"/>
<path d="M26.86 50.2345L20.5358 47.4312L26.7054 43.5901L27.5279 32.6387L17.091 31.9632L16.8338 40.9952L11.5894 44.8351L11.3898 32.2113V28.3364L1.71776 29.7107V32.2113V32.2229L2.1296 64.249L12.3611 63.8868L12.0012 51.6356L17.6563 55.4779L18.2227 64.4575L29.0196 63.8344L26.86 50.2345Z" fill="#0A103A"/>
<path d="M0 20.95V27.6293L9.67087 26.255V20.95H0Z" fill="#0A103A"/>
<path d="M168.909 63.3312L167.877 40.683L176 40.7867L175.589 31.5474L151.475 32.0668L151.579 41.1501L158.982 40.8915L158.879 64.1464L158.887 64.1453V67.3469L169.092 65.9214L168.909 63.3312Z" fill="#0A103A"/>
<path d="M167.893 75L167.55 68.0784L157.184 69.5028V75H167.893Z" fill="#0A103A"/>
</svg>
