<svg width="167" height="29" viewBox="0 0 167 29" fill="none" xmlns="http://www.w3.org/2000/svg">
<path d="M6.88 28V8.52H0V2.24H22.4V8.52H15.48V28H6.88ZM32.0856 28.4C29.8723 28.4 27.8856 28.04 26.1256 27.32C24.3923 26.5733 23.0323 25.4667 22.0456 24C21.059 22.5333 20.5656 20.7333 20.5656 18.6C20.5656 15.5867 21.4323 13.1733 23.1656 11.36C24.9256 9.54667 27.5523 8.64 31.0456 8.64C34.219 8.64 36.7256 9.44 38.5656 11.04C40.4056 12.6133 41.3256 14.8267 41.3256 17.68V20.96H28.4456C29.139 22.4267 31.0856 23.16 34.2856 23.16C35.459 23.16 36.5923 23.0667 37.6856 22.88C38.779 22.6667 39.659 22.4267 40.3256 22.16V27.04C38.4323 27.9467 35.6856 28.4 32.0856 28.4ZM28.4456 16.48H33.9656V15.96C33.9656 15.4 33.7656 14.92 33.3656 14.52C32.9923 14.12 32.3123 13.92 31.3256 13.92C30.259 13.92 29.5123 14.1467 29.0856 14.6C28.659 15.0533 28.4456 15.68 28.4456 16.48ZM43.7094 28V1.04H52.3094V13.6L56.6694 9.04H66.3894L58.8694 17.16L66.7894 28H57.6694L53.5094 21.64L52.3094 22.92V28H43.7094ZM77.0856 28.4C74.8723 28.4 72.8856 28.04 71.1256 27.32C69.3923 26.5733 68.0323 25.4667 67.0456 24C66.059 22.5333 65.5656 20.7333 65.5656 18.6C65.5656 15.5867 66.4323 13.1733 68.1656 11.36C69.9256 9.54667 72.5523 8.64 76.0456 8.64C79.219 8.64 81.7256 9.44 83.5656 11.04C85.4056 12.6133 86.3256 14.8267 86.3256 17.68V20.96H73.4456C74.139 22.4267 76.0856 23.16 79.2856 23.16C80.459 23.16 81.5923 23.0667 82.6856 22.88C83.779 22.6667 84.659 22.4267 85.3256 22.16V27.04C83.4323 27.9467 80.6856 28.4 77.0856 28.4ZM73.4456 16.48H78.9656V15.96C78.9656 15.4 78.7656 14.92 78.3656 14.52C77.9923 14.12 77.3123 13.92 76.3256 13.92C75.259 13.92 74.5123 14.1467 74.0856 14.6C73.659 15.0533 73.4456 15.68 73.4456 16.48ZM88.7094 28V9.04H96.7494L96.9494 10.32C97.6427 9.86667 98.5894 9.48 99.7894 9.16C100.989 8.81333 102.269 8.64 103.629 8.64C105.949 8.64 107.643 9.24 108.709 10.44C109.776 11.6133 110.309 13.4133 110.309 15.84V28H101.709V16.84C101.709 16.1733 101.563 15.7067 101.269 15.44C100.976 15.1467 100.483 15 99.7894 15C99.3627 15 98.9094 15.1067 98.4294 15.32C97.976 15.5333 97.6027 15.7867 97.3094 16.08V28H88.7094ZM114.719 7V0.959998H123.959V7H114.719ZM115.359 28V15.28H112.679L113.399 9.04H123.959V28H115.359ZM126.347 28V23.4L133.507 15.64H126.587V9.04H144.467V13.96L137.587 21.64H144.747V28H126.347ZM157.086 28.4C154.872 28.4 152.886 28.04 151.126 27.32C149.392 26.5733 148.032 25.4667 147.046 24C146.059 22.5333 145.566 20.7333 145.566 18.6C145.566 15.5867 146.432 13.1733 148.166 11.36C149.926 9.54667 152.552 8.64 156.046 8.64C159.219 8.64 161.726 9.44 163.566 11.04C165.406 12.6133 166.326 14.8267 166.326 17.68V20.96H153.446C154.139 22.4267 156.086 23.16 159.286 23.16C160.459 23.16 161.592 23.0667 162.686 22.88C163.779 22.6667 164.659 22.4267 165.326 22.16V27.04C163.432 27.9467 160.686 28.4 157.086 28.4ZM153.446 16.48H158.966V15.96C158.966 15.4 158.766 14.92 158.366 14.52C157.992 14.12 157.312 13.92 156.326 13.92C155.259 13.92 154.512 14.1467 154.086 14.6C153.659 15.0533 153.446 15.68 153.446 16.48Z" fill="#0A103A"/>
</svg>
