<svg width="207" height="43" viewBox="0 0 207 43" fill="none" xmlns="http://www.w3.org/2000/svg">
<g clip-path="url(#clip0_575_2498)">
<path d="M59.4472 35.6593C57.1791 35.6593 55.4986 35.0624 54.4057 33.8687C53.3128 32.6749 52.763 31.0516 52.7565 28.9988V19.8478H49.988V15.5122H52.7565V11.2656L58.36 9.59863V15.5122H63.357L63.0242 19.8404H58.3698V28.6254C58.3698 29.707 58.6164 30.449 59.1094 30.8513C59.6025 31.2536 60.3766 31.4548 61.4317 31.4548C62.2549 31.4486 63.0717 31.3083 63.8501 31.0393V34.9099C63.2086 35.1695 62.5406 35.3578 61.8582 35.4713C61.0614 35.6035 60.2547 35.6664 59.4472 35.6593V35.6593Z" fill="#0A103A"/>
<path d="M76.9578 35.6594C73.5558 35.6594 70.8588 34.8062 68.8669 33.0996C66.8749 31.3931 65.879 28.8052 65.879 25.3361C65.879 22.2033 66.7155 19.7119 68.3886 17.8619C70.0617 16.0119 72.5582 15.0869 75.878 15.0869C78.9218 15.0869 81.2523 15.885 82.8695 17.481C84.4867 19.0771 85.2961 21.1645 85.2978 23.7433V27.3246H71.0659C71.3699 28.9042 72.0963 29.9866 73.2451 30.572C74.3939 31.1573 76.0186 31.4483 78.119 31.445C79.1975 31.4462 80.2741 31.3519 81.3361 31.1631C82.2918 31.0096 83.23 30.761 84.1366 30.4211V34.4179C83.1128 34.8669 82.0357 35.1819 80.9318 35.3552C79.618 35.5679 78.2886 35.6697 76.9578 35.6594V35.6594ZM71.0659 23.8793H80.4018V22.796C80.4018 21.6584 80.0731 20.763 79.4157 20.1101C78.7583 19.4572 77.6382 19.1274 76.0555 19.1208C74.2017 19.1208 72.9082 19.4951 72.1752 20.2436C71.4422 20.9922 71.0724 22.2041 71.0659 23.8793V23.8793Z" fill="#0A103A"/>
<path d="M89.1978 35.2439V7.18481H94.7989V22.6303L102.145 15.5123H108.535L100.609 23.5874L108.991 35.2439H103.048L97.0817 26.543L94.7989 28.7491V35.2439H89.1978Z" fill="#0A103A"/>
<path d="M120.154 35.6594C116.752 35.6594 114.055 34.8062 112.063 33.0996C110.071 31.3931 109.075 28.8052 109.075 25.3361C109.075 22.2033 109.912 19.7119 111.585 17.8619C113.258 16.0119 115.754 15.0869 119.072 15.0869C122.114 15.0869 124.444 15.885 126.063 17.481C127.682 19.0771 128.492 21.1645 128.494 23.7433V27.3246H114.262C114.566 28.9042 115.293 29.9866 116.441 30.572C117.59 31.1573 119.215 31.4483 121.315 31.445C122.39 31.4421 123.462 31.3445 124.52 31.1532C125.476 30.9997 126.414 30.7512 127.321 30.4112V34.408C126.297 34.8566 125.22 35.1716 124.116 35.3453C122.806 35.5606 121.481 35.6656 120.154 35.6594V35.6594ZM114.262 23.8793H123.598V22.796C123.598 21.6584 123.269 20.763 122.612 20.1101C121.954 19.4572 120.834 19.1274 119.252 19.1208C117.398 19.1208 116.104 19.4951 115.371 20.2436C114.638 20.9922 114.269 22.2041 114.262 23.8793V23.8793Z" fill="#0A103A"/>
<path d="M132.384 35.244V15.5124H137.561L137.768 17.3846C138.701 16.7041 139.729 16.1642 140.818 15.782C142.063 15.3183 143.382 15.0829 144.71 15.087C147.312 15.087 149.207 15.6979 150.395 16.9196C151.584 18.1414 152.179 20.0285 152.18 22.5809V35.244H146.586V22.8777C146.586 21.5455 146.316 20.6015 145.775 20.0458C145.235 19.4902 144.232 19.2124 142.768 19.2124C141.872 19.2214 140.988 19.4203 140.174 19.796C139.365 20.1432 138.626 20.637 137.995 21.2528V35.244H132.384Z" fill="#0A103A"/>
<path d="M158.578 35.2438V19.6747H155.619L156.112 15.5122H164.186V35.2438H158.578ZM158.121 11.8888V7.47656H164.22V11.8888H158.121Z" fill="#0A103A"/>
<path d="M168.13 35.2438V32.3279L178.048 20.1743H168.535V15.5122H185.052V18.9253L175.339 30.9156H185.34V35.2438H168.13Z" fill="#0A103A"/>
<path d="M198.66 35.6594C195.258 35.6594 192.561 34.8062 190.569 33.0996C188.577 31.3931 187.581 28.8052 187.581 25.3361C187.581 22.2033 188.418 19.7119 190.091 17.8619C191.764 16.0119 194.26 15.0869 197.58 15.0869C200.622 15.0869 202.953 15.885 204.572 17.481C206.191 19.0771 207 21.1645 207 23.7433V27.3246H192.768C193.07 28.9042 193.796 29.9866 194.945 30.572C196.094 31.1573 197.719 31.4483 199.821 31.445C200.9 31.4461 201.976 31.3518 203.038 31.1631C203.997 31.0099 204.939 30.7614 205.849 30.4211V34.4179C204.825 34.8665 203.748 35.1815 202.644 35.3552C201.327 35.5683 199.994 35.67 198.66 35.6594V35.6594ZM192.768 23.8793H202.104V22.796C202.104 21.6584 201.775 20.763 201.118 20.1101C200.46 19.4572 199.34 19.1274 197.755 19.1208C195.901 19.1208 194.609 19.4951 193.877 20.2436C193.146 20.9922 192.776 22.2041 192.768 23.8793V23.8793Z" fill="#0A103A"/>
<path d="M15.0109 11.8147H12.6443V14.7826C13.208 13.632 14.0158 12.6191 15.0109 11.8147V11.8147Z" fill="url(#paint0_linear_575_2498)"/>
<path d="M29.1492 4.66703C28.7554 3.22968 27.9077 1.95919 26.7332 1.04619C25.7519 0.364264 24.5865 -0.000744801 23.3928 1.14104e-06H5.88949C4.32813 0.000656003 2.83087 0.623039 1.72658 1.73044C0.622303 2.83784 0.00130644 4.3397 0 5.90613L0 9.84603C0.00130568 11.412 0.621964 12.9135 1.72571 14.0208C2.82946 15.1282 4.32609 15.7508 5.88703 15.7522H12.2375C12.7823 14.2082 13.7422 12.8455 15.0109 11.8147H5.88949C5.36643 11.8147 4.86479 11.6063 4.49493 11.2352C4.12507 10.8642 3.91729 10.3609 3.91729 9.83613V5.90613C3.91729 5.38137 4.12507 4.87811 4.49493 4.50705C4.86479 4.13599 5.36643 3.92753 5.88949 3.92753H23.3928C23.9159 3.92753 24.4175 4.13599 24.7874 4.50705C25.1572 4.87811 25.365 5.38137 25.365 5.90613V37.0988C25.365 37.6236 25.1572 38.1268 24.7874 38.4979C24.4175 38.869 23.9159 39.0774 23.3928 39.0774H19.4755C18.9524 39.0774 18.4508 38.869 18.081 38.4979C17.7111 38.1268 17.5033 37.6236 17.5033 37.0988H13.5786C13.5819 38.6655 14.2047 40.1668 15.3103 41.2732C16.4159 42.3796 17.9139 43.0007 19.4755 43H23.3928C24.9529 42.998 26.4487 42.3759 27.5525 41.2699C28.6564 40.1638 29.2784 38.664 29.2823 37.0988V5.90613C29.282 5.48952 29.2374 5.07413 29.1492 4.66703V4.66703Z" fill="#0A103A"/>
<path d="M17.5033 30.698C17.5033 29.5183 17.5033 28.2247 17.5033 26.8818V24.8537C17.5033 22.7564 17.5033 20.575 17.5033 18.4702C17.5033 17.7487 17.789 17.0567 18.2976 16.5465C18.8062 16.0363 19.4959 15.7496 20.2151 15.7496H25.3453V11.8147H20.2151C19.628 11.8155 19.0435 11.8945 18.4771 12.0497H18.4599C17.0561 12.4835 15.828 13.3577 14.9561 14.5436C14.0842 15.7295 13.6143 17.1648 13.6156 18.6384C13.6156 18.725 13.6156 18.8091 13.6156 18.8857L13.5811 30.6906C13.5811 34.4376 13.5811 37.0839 13.5811 37.0839L17.5033 37.0988C17.5033 37.0493 17.5033 34.4153 17.5033 30.698Z" fill="#0A103A"/>
<path d="M17.5033 30.698C17.5033 29.5183 17.5033 28.2247 17.5033 26.8818V24.8537C17.5033 22.7564 17.5033 20.575 17.5033 18.4702C17.5033 17.7487 17.789 17.0567 18.2976 16.5465C18.8062 16.0363 19.4959 15.7496 20.2151 15.7496H25.3453V11.8147H20.2151C19.628 11.8155 19.0435 11.8945 18.4771 12.0497H18.4599C17.0561 12.4835 15.828 13.3577 14.9561 14.5436C14.0842 15.7295 13.6143 17.1648 13.6156 18.6384C13.6156 18.725 13.6156 18.8091 13.6156 18.8857L13.5811 30.6906C13.5811 34.4376 13.5811 37.0839 13.5811 37.0839L17.5033 37.0988C17.5033 37.0493 17.5033 34.4153 17.5033 30.698Z" fill="#0A103A"/>
<path d="M36.9788 11.8148H29.2823V15.7523H36.9788C38.54 15.751 40.0369 15.1284 41.141 14.0211C42.2451 12.9138 42.8663 11.4124 42.8683 9.84613V7.68945H38.9338V9.84613C38.9312 10.3662 38.7246 10.8643 38.3588 11.2328C37.9929 11.6012 37.4972 11.8103 36.9788 11.8148V11.8148Z" fill="url(#paint1_linear_575_2498)"/>
<path d="M36.9788 0H28.4244V0.0222593C29.5813 1.08184 30.4328 2.43414 30.8896 3.93742H36.9788C37.5019 3.93742 38.0035 4.14588 38.3734 4.51694C38.7432 4.888 38.951 5.39127 38.951 5.91602V9.84603C38.951 10.3708 38.7432 10.8741 38.3734 11.2451C38.0035 11.6162 37.5019 11.8246 36.9788 11.8246H29.2823V15.7522H36.9788C38.54 15.7508 40.0369 15.1283 41.141 14.021C42.2451 12.9137 42.8663 11.4123 42.8683 9.84603V5.90613C42.8663 4.3399 42.2451 2.83842 41.141 1.73116C40.0369 0.623902 38.54 0.00130887 36.9788 0V0Z" fill="#0A103A"/>
</g>
<defs>
<linearGradient id="paint0_linear_575_2498" x1="3.88277" y1="-0.912669" x2="31.4972" y2="38.2834" gradientUnits="userSpaceOnUse">
<stop offset="0.03" stop-color="#64B3DE"/>
<stop offset="1" stop-color="#7727BA"/>
</linearGradient>
<linearGradient id="paint1_linear_575_2498" x1="19.5174" y1="-11.9284" x2="47.1318" y2="27.2677" gradientUnits="userSpaceOnUse">
<stop offset="0.03" stop-color="#64B3DE"/>
<stop offset="1" stop-color="#7727BA"/>
</linearGradient>
<clipPath id="clip0_575_2498">
<rect width="207" height="43" fill="white"/>
</clipPath>
</defs>
</svg>
