<svg width="67" height="67" viewBox="0 0 67 67" fill="none" xmlns="http://www.w3.org/2000/svg">
<path d="M25.6273 51.9113C25.6273 53.1369 24.6335 54.1307 23.4079 54.1307C22.1823 54.1307 21.1885 53.1369 21.1885 51.9113C21.1885 50.6857 22.1823 49.6919 23.4079 49.6919C24.6335 49.6919 25.6273 50.6857 25.6273 51.9113Z" fill="#455AE4" stroke="#455AE4" stroke-width="0.5"/>
<path d="M51.1296 51.0737C51.1296 51.5594 50.7359 51.9531 50.2502 51.9531C49.7646 51.9531 49.3708 51.5594 49.3708 51.0737C49.3708 50.588 49.7646 50.1943 50.2502 50.1943C50.7359 50.1943 51.1296 50.588 51.1296 51.0737Z" fill="#455AE4" stroke="#455AE4" stroke-width="0.5"/>
<path d="M57.7874 21.5106V21.3431V15.9831V15.8156C57.6199 13.6381 53.9349 12.4656 50.2499 12.4656C46.5649 12.4656 42.9218 13.5962 42.7124 15.8156V15.9831V21.3431V21.5106C42.8799 23.5206 46.0205 24.6931 49.4124 24.8187V30.5975C48.4074 30.8906 47.5699 31.6862 47.3187 32.6912H37.6879V11.7537C37.6879 10.3718 36.5573 9.24121 35.1754 9.24121H11.7254C10.3435 9.24121 9.21289 10.3718 9.21289 11.7537V55.3037C9.21289 56.6856 10.3435 57.8162 11.7254 57.8162H35.1754C36.5573 57.8162 37.6879 56.6856 37.6879 55.3037V34.3662H47.3187C47.6118 35.3712 48.4074 36.2087 49.4124 36.46V42.1969C46.0624 42.3644 42.9218 43.495 42.7124 45.505V45.6725V51.0325V51.2C42.8799 53.3775 46.5649 54.55 50.2499 54.55C53.9349 54.55 57.578 53.4194 57.7874 51.2V51.0325V45.7144V45.5469C57.6199 43.5369 54.4793 42.3644 51.0874 42.2388V36.4601C52.3855 36.0832 53.3068 34.9106 53.3068 33.5288C53.3068 32.147 52.3438 30.9326 51.0874 30.5976V24.8606C54.4374 24.6931 57.578 23.5626 57.7874 21.5106V21.5106ZM29.3124 10.916V12.8841C29.3124 13.3447 28.9355 13.7216 28.4749 13.7216H18.4249C17.9643 13.7216 17.5874 13.3447 17.5874 12.8841V10.916H29.3124ZM36.0124 55.3035C36.0124 55.7641 35.6355 56.141 35.1749 56.141H11.7249C11.2643 56.141 10.8874 55.7641 10.8874 55.3035V11.7535C10.8874 11.2929 11.2643 10.916 11.7249 10.916H15.9124V12.8841C15.9124 14.266 17.043 15.3966 18.4249 15.3966H28.4749C29.8568 15.3966 30.9874 14.266 30.9874 12.8841V10.916H35.1749C35.6355 10.916 36.0124 11.2929 36.0124 11.7535V32.691H30.9874V28.5035C30.9874 28.2941 30.9037 28.0848 30.7362 27.9173L25.7112 22.8923C25.5437 22.7248 25.3343 22.641 25.1249 22.641H18.4249C17.043 22.641 15.9124 23.7716 15.9124 25.1535V41.9035C15.9124 43.2854 17.043 44.416 18.4249 44.416H28.4749C29.8568 44.416 30.9874 43.2854 30.9874 41.9035V34.366H36.0124V55.3035ZM26.3816 32.691C26.0048 31.3929 24.8322 30.4716 23.4504 30.4716C21.7754 30.4716 20.3935 31.8535 20.3935 33.5285C20.3935 35.2035 21.7754 36.5854 23.4504 36.5854C24.8323 36.5854 26.0466 35.6224 26.3816 34.366H29.3129V41.9035C29.3129 42.3641 28.936 42.741 28.4754 42.741H18.4254C17.9648 42.741 17.5879 42.3641 17.5879 41.9035V25.1535C17.5879 24.6929 17.9648 24.316 18.4254 24.316H24.7904L29.3129 28.8385V32.691H26.3816ZM24.8322 33.5285C24.8322 34.2823 24.2041 34.9104 23.4503 34.9104C22.6965 34.9104 22.0684 34.2823 22.0684 33.5285C22.0684 32.7747 22.6965 32.1466 23.4503 32.1466C24.2041 32.1466 24.8322 32.7747 24.8322 33.5285ZM50.2501 14.1406C53.8932 14.1406 56.1126 15.3131 56.1126 15.9831C56.1126 16.6531 53.8932 17.8256 50.2501 17.8256C46.607 17.8256 44.3876 16.6531 44.3876 15.9831C44.3876 15.355 46.607 14.1406 50.2501 14.1406ZM44.3876 21.3431V18.2862C45.8532 19.0818 48.0307 19.5006 50.2501 19.5006C52.4695 19.5006 54.647 19.0819 56.1126 18.2862V21.3431C56.1126 21.9713 53.8932 23.1856 50.2501 23.1856C46.607 23.1856 44.3876 22.0131 44.3876 21.3431ZM50.2501 52.9174C46.607 52.9174 44.3876 51.7449 44.3876 51.0749V48.0179C45.8532 48.8136 48.0307 49.2324 50.2501 49.2324C52.4695 49.2324 54.647 48.8136 56.1126 48.0179V51.0749C56.1126 51.703 53.8932 52.9174 50.2501 52.9174ZM56.1126 45.7149C56.1126 46.3849 53.8932 47.5574 50.2501 47.5574C46.607 47.5574 44.3876 46.3849 44.3876 45.7149C44.3876 45.0867 46.607 43.8724 50.2501 43.8724C53.8932 43.8724 56.1126 45.0449 56.1126 45.7149ZM51.632 33.5295C51.632 34.2832 51.0039 34.9114 50.2501 34.9114C49.4963 34.9114 48.8682 34.2833 48.8682 33.5295C48.8682 32.7757 49.4963 32.1476 50.2501 32.1476C51.0039 32.1476 51.632 32.7757 51.632 33.5295Z" fill="#455AE4" stroke="#455AE4" stroke-width="0.5"/>
<path d="M51.1296 21.3432C51.1296 21.8289 50.7359 22.2226 50.2502 22.2226C49.7646 22.2226 49.3708 21.8289 49.3708 21.3432C49.3708 20.8576 49.7646 20.4639 50.2502 20.4639C50.7359 20.4639 51.1296 20.8576 51.1296 21.3432Z" fill="#455AE4" stroke="#455AE4" stroke-width="0.5"/>
</svg>
