<svg width="67" height="67" viewBox="0 0 67 67" fill="none" xmlns="http://www.w3.org/2000/svg">
<path d="M55.9406 14.6445H11.0428C10.2598 14.6445 9.61938 15.285 9.61938 16.0679V50.916C9.61938 51.6989 10.2598 52.3394 11.0428 52.3394H55.9329C56.7159 52.3394 57.3563 51.6989 57.3563 50.916L57.3568 16.0679C57.3638 15.2855 56.7233 14.6445 55.9403 14.6445H55.9406ZM54.5172 17.4918V23.8121H12.4664V17.4918H54.5172ZM12.4664 49.4916V26.6582H54.5096V49.484H12.4664V49.4916Z" fill="#455AE4"/>
<path d="M26.2679 32.6023C25.7129 32.0473 24.8088 32.0473 24.2537 32.6023L19.2784 37.5776C18.7233 38.1327 18.7233 39.0367 19.2784 39.5919L24.2537 44.5672C24.5312 44.8447 24.8941 44.9872 25.257 44.9872C25.62 44.9872 25.9829 44.8447 26.2604 44.5672C26.8155 44.0121 26.8155 43.1081 26.2604 42.5529L22.2891 38.5816L26.2604 34.6103C26.8229 34.0547 26.8229 33.1575 26.2679 32.6025L26.2679 32.6023Z" fill="#455AE4"/>
<path d="M42.7731 32.6023C42.218 32.0473 41.314 32.0473 40.7588 32.6023C40.2038 33.1574 40.2038 34.0614 40.7588 34.6166L44.7302 38.5879L40.7588 42.5593C40.2038 43.1144 40.2038 44.0184 40.7588 44.5736C41.0364 44.8511 41.3993 44.9936 41.7622 44.9936C42.1251 44.9936 42.4881 44.8511 42.7656 44.5736L47.7409 39.5983C48.296 39.0432 48.296 38.1392 47.7409 37.584L42.7731 32.6023Z" fill="#455AE4"/>
<path d="M37.67 30.7873C36.9724 30.4174 36.111 30.6805 35.7411 31.3711L28.766 44.4534C28.3961 45.1441 28.6593 46.0124 29.3499 46.3823C29.5634 46.496 29.7913 46.5531 30.0191 46.5531C30.5246 46.5531 31.0225 46.2825 31.2787 45.7985L38.2613 32.7161C38.6312 32.0191 38.3675 31.1581 37.67 30.7878L37.67 30.7873Z" fill="#455AE4"/>
<path d="M15.7913 22.0763H19.649C20.432 22.0763 21.0724 21.4358 21.0724 20.6529C21.0724 19.8699 20.4319 19.2295 19.649 19.2295H15.7913C15.0083 19.2295 14.3679 19.87 14.3679 20.6529C14.3679 21.4358 15.0084 22.0763 15.7913 22.0763Z" fill="#455AE4"/>
</svg>
