<svg width="67" height="67" viewBox="0 0 67 67" fill="none" xmlns="http://www.w3.org/2000/svg">
<path d="M29.927 35.2635H24.567V20.9695H27.247C27.7401 20.9695 28.1402 20.5698 28.1402 20.0763C28.1402 19.5828 27.7401 19.1831 27.247 19.1831H20.1002C19.6067 19.1831 19.207 19.5828 19.207 20.0763C19.207 20.5698 19.6067 20.9695 20.1002 20.9695H22.7802V35.2635H17.4202C15.3627 35.2609 13.4357 36.2707 12.2669 37.9641C11.0978 39.6571 10.8365 41.817 11.5681 43.7399C12.2994 45.6631 13.93 47.1033 15.9288 47.5916C17.9276 48.0795 20.0386 47.5535 21.574 46.1843C21.7295 46.0508 21.9284 45.9794 22.1333 45.9835H25.2145C25.4186 45.9798 25.6168 46.0508 25.7719 46.1835C26.9085 47.2087 28.3861 47.7744 29.9168 47.7699C30.3756 47.7695 30.8332 47.7209 31.2819 47.6252C32.4537 47.3654 33.5259 46.7735 34.3709 45.921C35.2159 45.069 35.798 43.9914 36.0478 42.8174C36.4374 40.9715 35.9738 39.0483 34.7863 37.5827C33.5985 36.1171 31.8132 35.265 29.9269 35.2635L29.927 35.2635ZM34.298 42.4619C33.9645 44.0153 32.8298 45.2743 31.3193 45.767C29.8085 46.2598 28.1499 45.9117 26.9647 44.8532C26.4816 44.4266 25.8587 44.1929 25.2146 44.1967H22.1334C21.4885 44.1926 20.8648 44.4266 20.3818 44.8532C19.1962 45.9106 17.538 46.2579 16.0279 45.7655C14.5178 45.2731 13.3834 44.0146 13.0492 42.4618C12.7695 41.1334 13.1041 39.7496 13.9596 38.6953C14.8061 37.6536 16.0777 37.0491 17.4202 37.0498H29.9272C31.2698 37.0491 32.5411 37.6537 33.3879 38.6953C34.2433 39.7496 34.5776 41.1334 34.2983 42.4618L34.298 42.4619Z" fill="#455AE4"/>
<path d="M55.7248 7.46142C55.2223 6.95892 54.5407 6.67627 53.8295 6.67627C53.1188 6.67627 52.4372 6.95892 51.9343 7.46142L50.0398 9.35628L40.6463 18.7498V11.1431C40.6448 9.95861 40.1737 8.82353 39.3362 7.98603C38.4991 7.14891 37.3636 6.67781 36.1795 6.67628H11.1665C9.98204 6.67777 8.84696 7.14887 8.00946 7.98603C7.17233 8.82353 6.70124 9.95861 6.69971 11.1431V55.8091C6.7012 56.9936 7.1723 58.1286 8.00946 58.9661C8.84696 59.8033 9.98204 60.2744 11.1665 60.2759H36.1795C37.3636 60.2744 38.4991 59.8033 39.3362 58.9661C40.1737 58.1286 40.6448 56.9936 40.6463 55.8091V30.6803L44.0542 29.9228C44.2419 29.8738 44.424 29.8043 44.5964 29.7153C44.6173 29.7085 44.6375 29.7011 44.6573 29.6921C44.9119 29.5683 45.1452 29.4046 45.3486 29.2072L57.6192 16.9356L59.514 15.0408V15.0412C60.0165 14.5383 60.2992 13.8567 60.2992 13.1459C60.2992 12.4348 60.0165 11.7532 59.514 11.2507L55.7248 7.46142ZM37.4117 29.5628L38.557 24.4009L42.577 28.4209L37.4117 29.5628ZM11.1669 8.46355H36.1799C36.8907 8.46355 37.5723 8.74583 38.0751 9.24833C38.5776 9.75083 38.8599 10.4328 38.8599 11.1436V13.8236H8.4869V11.1436C8.4869 10.4328 8.76918 9.75083 9.27168 9.24833C9.77418 8.74583 10.4561 8.46355 11.1669 8.46355H11.1669ZM36.1799 58.4896H11.1669C10.4561 58.4896 9.77415 58.2073 9.27165 57.7048C8.76915 57.2023 8.48687 56.5203 8.48687 55.8096V53.1296H38.8599V55.8096C38.8599 56.5203 38.5776 57.2023 38.0751 57.7048C37.5722 58.2073 36.8906 58.4896 36.1799 58.4896H36.1799ZM38.8599 51.3428L8.48688 51.3432V15.6092H38.8599V20.5359L37.7674 21.6276C37.5708 21.8306 37.4074 22.0636 37.2832 22.3174C37.2743 22.338 37.2672 22.3585 37.2601 22.3799C37.1707 22.5541 37.1004 22.7373 37.0511 22.9265L35.6654 29.1681V29.1685C35.5248 29.7674 35.7032 30.3971 36.1376 30.833C36.5717 31.2694 37.2005 31.4507 37.8003 31.3124L38.8598 31.0776L38.8599 51.3428ZM44.3549 27.6746L39.3014 22.6211L40.3786 21.5414L40.385 21.5343L50.6714 11.2507L52.5662 13.1464L43.0905 22.6221C42.9181 22.7884 42.8198 23.0173 42.8179 23.2565C42.8157 23.4962 42.9099 23.7269 43.0793 23.8963C43.2487 24.0656 43.4794 24.1599 43.719 24.1576C43.9583 24.1557 44.1871 24.0574 44.3535 23.885L53.8292 14.4093L55.7248 16.3042L44.3549 27.6746ZM58.2516 13.7778L56.9887 15.0411L51.9349 9.98732L53.1982 8.72437C53.3657 8.5565 53.593 8.46228 53.8301 8.46228C54.0671 8.46228 54.2948 8.5565 54.4623 8.72437L58.252 12.5141L58.2516 12.5137C58.4195 12.6812 58.5137 12.9089 58.5137 13.146C58.5137 13.383 58.4195 13.6103 58.2516 13.7778L58.2516 13.7778Z" fill="#455AE4"/>
<path d="M19.2068 40.6232H18.3132V39.7296C18.3132 39.2365 17.9135 38.8364 17.42 38.8364C16.9265 38.8364 16.5268 39.2365 16.5268 39.7296V40.6228L15.6332 40.6232C15.14 40.6232 14.74 41.0229 14.74 41.5164C14.74 42.0099 15.14 42.4096 15.6332 42.4096H16.5264V43.3028L16.5268 43.3032C16.5268 43.7964 16.9265 44.1964 17.42 44.1964C17.9135 44.1964 18.3132 43.7964 18.3132 43.3032V42.4096H19.2068C19.6999 42.4096 20.1 42.0099 20.1 41.5164C20.1 41.0229 19.6999 40.6232 19.2068 40.6232H19.2068Z" fill="#455AE4"/>
<path d="M30.82 38.8364H29.9268C29.4333 38.8364 29.0332 39.2365 29.0332 39.7296C29.0332 40.2232 29.4333 40.6232 29.9268 40.6232H30.82C31.3135 40.6232 31.7132 40.2232 31.7132 39.7296C31.7132 39.2365 31.3135 38.8364 30.82 38.8364Z" fill="#455AE4"/>
<path d="M30.82 42.4092H29.9268C29.4333 42.4092 29.0332 42.8092 29.0332 43.3028C29.0332 43.7959 29.4333 44.196 29.9268 44.196H30.82C31.3135 44.196 31.7132 43.7959 31.7132 43.3028C31.7132 42.8092 31.3135 42.4092 30.82 42.4092Z" fill="#455AE4"/>
<path d="M24.567 38.8364H22.7802C22.2866 38.8364 21.887 39.2365 21.887 39.7296C21.887 40.2232 22.2866 40.6232 22.7802 40.6232H24.567C25.0601 40.6232 25.4602 40.2232 25.4602 39.7296C25.4602 39.2365 25.0601 38.8364 24.567 38.8364Z" fill="#455AE4"/>
<path d="M26.3529 12.0363H27.2465C27.7397 12.0363 28.1397 11.6362 28.1397 11.1431C28.1397 10.6496 27.7397 10.2495 27.2465 10.2495H26.3529C25.8598 10.2495 25.4597 10.6496 25.4597 11.1431C25.4597 11.6362 25.8598 12.0363 26.3529 12.0363Z" fill="#455AE4"/>
<path d="M20.1 12.0363H22.78C23.2735 12.0363 23.6732 11.6362 23.6732 11.1431C23.6732 10.6496 23.2735 10.2495 22.78 10.2495H20.1C19.6065 10.2495 19.2068 10.6496 19.2068 11.1431C19.2068 11.6362 19.6065 12.0363 20.1 12.0363Z" fill="#455AE4"/>
<path d="M25.4599 54.9165H21.8867C21.3932 54.9165 20.9932 55.3166 20.9932 55.8097C20.9932 56.3032 21.3932 56.7033 21.8867 56.7033H25.4599C25.9535 56.7033 26.3532 56.3032 26.3532 55.8097C26.3532 55.3166 25.9535 54.9165 25.4599 54.9165Z" fill="#455AE4"/>
</svg>
