<svg width="67" height="67" viewBox="0 0 67 67" fill="none" xmlns="http://www.w3.org/2000/svg">
<path d="M15.893 56.9985L20.1086 56.8003L22.8009 59.9663V59.966C23.1456 60.3683 23.6489 60.5997 24.1787 60.5986C24.2658 60.5986 24.353 60.5922 24.4393 60.5799C25.0536 60.4958 25.5812 60.1024 25.8376 59.5382L33.6533 42.2465L41.4701 59.5401C41.7262 60.1036 42.2537 60.4962 42.8673 60.5799C42.9537 60.5922 43.0408 60.5986 43.1279 60.5986C43.6592 60.5993 44.1635 60.3668 44.5083 59.9626L47.2242 56.7932L51.4229 56.9989L51.4225 56.9985C52.0533 57.0276 52.6529 56.7248 53.0037 56.1999C53.3496 55.6903 53.4041 55.0374 53.1477 54.4774L44.3618 35.056C44.5842 34.8586 44.8085 34.6664 45.0235 34.4503C45.3578 34.1161 45.6711 33.774 45.956 33.4318H45.9564C46.165 33.1798 46.2996 32.8747 46.3452 32.5506C46.3908 32.2264 46.3456 31.8959 46.2144 31.596L45.3559 29.5815C45.855 28.6865 46.2491 27.7368 46.5306 26.7517L48.562 25.9396H48.5623C48.8667 25.8199 49.1321 25.6184 49.3292 25.3571C49.5258 25.0957 49.6462 24.785 49.6769 24.4594C49.7173 24.0216 49.7367 23.5579 49.7367 23.079C49.7367 22.6 49.7169 22.1364 49.6769 21.7005C49.6455 21.3745 49.5243 21.0634 49.3265 20.8024C49.1291 20.5411 48.8629 20.3396 48.5578 20.2203L46.5265 19.4082H46.5261C46.2461 18.423 45.8535 17.473 45.3558 16.5772L46.2187 14.5619C46.35 14.2621 46.3952 13.9319 46.3492 13.6078C46.3036 13.284 46.1686 12.9789 45.9596 12.7269C45.6766 12.3855 45.3629 12.0434 45.0287 11.7095C44.6944 11.3753 44.3534 11.062 44.0102 10.776H44.0106C43.7586 10.567 43.4535 10.432 43.1293 10.3864C42.8052 10.3408 42.4746 10.3864 42.1748 10.518L40.1595 11.3809C39.2633 10.8814 38.3121 10.4873 37.3259 10.2062L36.512 8.1738C36.3927 7.86909 36.1912 7.60326 35.9298 7.4066C35.6685 7.20956 35.3574 7.08917 35.0317 7.05889C34.1142 6.98037 33.1922 6.98037 32.2747 7.05889C31.949 7.08954 31.638 7.20993 31.3766 7.40697C31.1153 7.60401 30.9138 7.86984 30.7945 8.17455L29.9805 10.2063C28.9957 10.4878 28.0465 10.8819 27.1513 11.381L25.138 10.5188C24.8378 10.3872 24.5072 10.3416 24.1827 10.3868C23.8582 10.4324 23.5527 10.567 23.3003 10.776C22.9571 11.0621 22.615 11.3765 22.283 11.7085C21.9506 12.0409 21.6343 12.3856 21.3505 12.727H21.3501C21.1415 12.9794 21.0069 13.2845 20.9613 13.6086C20.9157 13.9328 20.9609 14.2629 21.0922 14.5628L21.9551 16.5773C21.456 17.4724 21.0619 18.4217 20.7804 19.4065L18.7472 20.2193V20.2197C18.4429 20.3393 18.1778 20.5412 17.9811 20.8026C17.7845 21.0635 17.6641 21.3742 17.6331 21.6999C17.593 22.1366 17.5732 22.6013 17.5732 23.0791C17.5732 23.5569 17.593 24.0217 17.6331 24.4576C17.6637 24.7833 17.7845 25.0943 17.9815 25.3557C18.1785 25.617 18.444 25.8185 18.7487 25.9378L20.7801 26.7499H20.7804C21.062 27.7351 21.456 28.6848 21.9551 29.5798L21.0922 31.5943C20.961 31.8941 20.9157 32.2246 20.9614 32.5488C21.0073 32.873 21.1419 33.1781 21.3509 33.43C21.6351 33.7722 21.9484 34.1143 22.2819 34.4474C22.4838 34.6493 22.6928 34.8269 22.8992 35.0127L14.1608 54.4762C13.9035 55.0367 13.9577 55.6906 14.3036 56.201C14.6569 56.727 15.26 57.0295 15.8929 56.9988L15.893 56.9985ZM47.294 55.0071C46.7381 54.9929 46.2045 55.2259 45.837 55.6431L43.0964 58.8021L34.6354 40.0784L35.0822 39.0887V39.0884C35.3978 39.0499 35.6969 38.9272 35.9485 38.7328C36.2001 38.5384 36.3946 38.28 36.5116 37.9843L37.3237 35.9519C38.3092 35.6726 39.2593 35.28 40.1547 34.7816L42.1692 35.6453V35.6456C42.3457 35.7185 42.533 35.763 42.7237 35.7776L51.5006 55.2181L47.294 55.0071ZM23.7177 29.058C23.1202 28.0683 22.6746 26.9945 22.3963 25.8726C22.3272 25.5933 22.1275 25.3644 21.8606 25.2579L19.4128 24.2948C19.3761 23.8936 19.3593 23.491 19.3593 23.0782C19.3593 22.6654 19.3761 22.2627 19.412 21.8776L21.8587 20.895V20.8947C22.1256 20.7885 22.3253 20.56 22.3948 20.2811C22.6737 19.1587 23.1201 18.0846 23.7187 17.0945C23.8672 16.8481 23.8877 16.5453 23.7741 16.2809L22.7227 13.869C22.9818 13.5587 23.257 13.2592 23.5483 12.9702C23.8422 12.6745 24.1431 12.3974 24.4336 12.1581L26.8632 13.1986C27.1279 13.3123 27.4307 13.2914 27.6771 13.1426C28.6653 12.5455 29.7375 12.1005 30.8581 11.822C31.1374 11.7528 31.3662 11.5532 31.4727 11.2862L32.4348 8.83841C33.2397 8.76551 34.0492 8.76551 34.8541 8.83841L35.8322 11.2862C35.9388 11.5532 36.1676 11.7528 36.4469 11.822C37.5686 12.1009 38.6424 12.5469 39.6316 13.1451C39.878 13.294 40.1808 13.3149 40.4452 13.2016L42.8571 12.1503C43.1592 12.4012 43.4602 12.6782 43.7548 12.9747C44.0494 13.2712 44.3201 13.5624 44.5676 13.8608L43.532 16.2888C43.4183 16.5531 43.4389 16.856 43.5873 17.1027C44.1844 18.0913 44.6297 19.1639 44.9086 20.2848C44.9782 20.5634 45.1775 20.7918 45.4444 20.8984L47.8904 21.8615C47.927 22.2626 47.9439 22.6709 47.9439 23.0781C47.9439 23.4856 47.927 23.8935 47.8975 24.2753H47.8904L45.4444 25.2579C45.1775 25.3644 44.9778 25.5933 44.9086 25.8726C44.6293 26.995 44.1833 28.0687 43.5847 29.058C43.4363 29.3048 43.4154 29.6076 43.529 29.872L44.5803 32.2839C44.3212 32.5942 44.0461 32.894 43.7548 33.1834C43.4673 33.4721 43.1671 33.748 42.8694 33.9955L40.4418 32.9576C40.1771 32.8443 39.8743 32.8656 39.6279 33.0148C38.6386 33.6126 37.5652 34.0583 36.4432 34.3368C36.1639 34.406 35.9355 34.6056 35.8285 34.8726L34.8673 37.3192V37.3196C34.0623 37.3906 33.2525 37.3906 32.4475 37.3196L31.4649 34.8718C31.358 34.6045 31.1292 34.4052 30.8502 34.3356C29.7282 34.0575 28.6548 33.6114 27.6655 33.0136C27.4192 32.8648 27.1163 32.8435 26.8516 32.9564L24.4397 34.0089C24.1305 33.7498 23.8303 33.4728 23.5465 33.1845C23.2623 32.8959 22.9812 32.5956 22.7337 32.2984L23.7734 29.8712L23.773 29.8708C23.8867 29.6068 23.8661 29.3044 23.7177 29.058L23.7177 29.058ZM24.5163 35.7715C24.729 35.7655 24.9388 35.721 25.1355 35.6403L27.1507 34.7766V34.7762C28.0454 35.2761 28.9947 35.6702 29.9799 35.9509L30.7928 37.9853H30.7931C30.9128 38.2896 31.115 38.5551 31.3764 38.7517C31.6381 38.9484 31.9492 39.0688 32.2752 39.0991C32.5433 39.1222 32.82 39.1249 33.0951 39.1349L24.1619 58.8052L21.4819 55.65V55.6496C21.1118 55.2215 20.567 54.9852 20.0017 55.0076L15.7858 55.211L24.5163 35.7715Z" fill="#455AE4"/>
<path d="M33.6529 32.9052C37.1637 32.9052 40.4079 31.032 42.1629 27.9916C43.9183 24.9511 43.9183 21.2056 42.1629 18.1655C40.4079 15.1251 37.1637 13.252 33.6529 13.252C33.1594 13.252 32.7597 13.652 32.7597 14.1455C32.7597 14.6387 33.1594 15.0387 33.6529 15.0387C36.3078 15.0406 38.7901 16.3537 40.2853 18.5472C41.7804 20.7412 42.0952 23.5319 41.1265 26.0036C40.1574 28.4749 38.0299 30.3085 35.4423 30.9015C32.8543 31.4944 30.141 30.7706 28.1923 28.9678C26.2437 27.1649 25.3115 24.5155 25.7022 21.8898C26.0929 19.2636 27.7556 17.0005 30.1447 15.8425C30.5889 15.6272 30.7743 15.0929 30.559 14.6487C30.3436 14.2045 29.809 14.0195 29.3648 14.2348C26.675 15.5374 24.7245 17.9931 24.0642 20.9079C23.4039 23.8223 24.1061 26.8792 25.9718 29.2137C27.8375 31.5482 30.6644 32.9066 33.6528 32.9054L33.6529 32.9052Z" fill="#455AE4"/>
<path d="M29.4481 24.2336C29.0997 24.5824 29.0997 25.1481 29.4481 25.4969L31.2349 27.2837C31.4024 27.4512 31.6297 27.5454 31.8664 27.5454H31.93C32.1887 27.5263 32.4261 27.3959 32.5813 27.188L37.9413 20.0412C38.2374 19.6467 38.1574 19.0866 37.7625 18.7906C37.3677 18.4945 36.808 18.5745 36.5119 18.9693L31.77 25.2924L30.7115 24.2339V24.2335C30.3626 23.885 29.7969 23.885 29.4481 24.2335L29.4481 24.2336Z" fill="#455AE4"/>
<path d="M20.3523 51.5858C20.5685 51.6834 20.8141 51.6912 21.0358 51.6075C21.2575 51.5237 21.437 51.3551 21.5342 51.1394L26.7495 39.5264V39.526C26.85 39.3095 26.8598 39.0616 26.7764 38.8377C26.693 38.6141 26.5236 38.4328 26.3057 38.3348C26.0877 38.2368 25.8398 38.2305 25.617 38.3165C25.3941 38.4028 25.2154 38.5745 25.1201 38.7936L19.904 50.4066C19.7029 50.8563 19.9037 51.3835 20.3523 51.5858L20.3523 51.5858Z" fill="#455AE4"/>
<path d="M42.0806 38.7916C41.8783 38.3414 41.3492 38.1406 40.8991 38.3429C40.4489 38.5452 40.2478 39.0739 40.45 39.5244L45.6661 51.1374H45.6665C45.7614 51.3565 45.9405 51.5281 46.1633 51.6145C46.3862 51.7005 46.6341 51.6941 46.852 51.5962C47.0696 51.4982 47.2394 51.3169 47.3228 51.0933C47.4061 50.8694 47.3964 50.6215 47.2958 50.405L42.0806 38.7916Z" fill="#455AE4"/>
</svg>
